<?xml version="1.0" standalone="no"?>
<!DOCTYPE svg PUBLIC "-//W3C//DTD SVG 1.1//EN" "http://www.w3.org/Graphics/SVG/1.1/DTD/svg11.dtd" >
<svg xmlns="http://www.w3.org/2000/svg">
<metadata></metadata>
<defs>
<font id="bodoni_egyptian_pro_regularRg" horiz-adv-x="1126" >
<font-face units-per-em="2048" ascent="1495" descent="-553" />
<missing-glyph horiz-adv-x="512" />
<glyph unicode="&#xfb01;" horiz-adv-x="1110" d="M41 784v113h184v143q0 219 92 330q106 125 295 125q141 0 220 -62t79 -135q0 -42 -26 -68t-62 -26t-63 22t-27 58q0 8 4 23t4 20q0 24 -38 40.5t-101 16.5q-124 0 -190 -79q-60 -75 -60 -250v-158h557v-784h154v-113h-447v113h168v671h-432v-671h178v-113h-475v113h170 v671h-184z" />
<glyph unicode="&#xfb02;" horiz-adv-x="1114" d="M41 784v113h184v143q0 219 92 330q106 125 295 125q104 0 176 -37h123v-1345h156v-113h-446v113h163v671h-432v-671h178v-113h-475v113h170v671h-184zM352 897h432v317q-43 24 -43 70q0 8 4.5 23t4.5 20q0 24 -42 40.5t-106 16.5q-124 0 -190 -79q-60 -75 -60 -250v-158z " />
<glyph unicode="&#xfb03;" horiz-adv-x="1671" d="M41 784v113h186v152q0 124 28 203.5t83 133.5q112 109 297 109q88 0 161 -25.5t117 -64.5q103 90 261 90q141 0 220 -62t79 -135q0 -42 -26.5 -68t-62.5 -26t-63 22t-27 58q0 8 4.5 23t4.5 20q0 24 -38.5 40.5t-101.5 16.5q-124 0 -190 -79q-60 -75 -60 -250v-158h557 v-784h154v-113h-446v113h168v671h-433v-671h179v-113h-476v113h170v671h-432v-671h176v-113h-475v113h172v671h-186zM354 897h432v143q0 128 29 220q2 8 6 17.5t6 14.5t2 8q0 20 -32 39q-68 45 -164 45q-132 0 -205 -73q-74 -74 -74 -256v-158z" />
<glyph unicode="&#xfb04;" horiz-adv-x="1675" d="M41 784v113h186v152q0 124 28 203.5t83 133.5q112 109 297 109q88 0 161 -25.5t117 -64.5q103 90 261 90q104 0 176 -37h123v-1345h155v-113h-446v113h164v671h-433v-671h179v-113h-476v113h170v671h-432v-671h176v-113h-475v113h172v671h-186zM354 897h432v143 q0 137 29 220q3 9 7 17.5t5.5 13.5t1.5 9q0 17 -26 35q-69 49 -170 49q-132 0 -205 -73q-74 -74 -74 -256v-158zM913 897h433v317q-43 24 -43 70q0 8 4 23t4 20q0 24 -42 40.5t-106 16.5q-124 0 -190 -79q-60 -75 -60 -250v-158z" />
<glyph horiz-adv-x="0" />
<glyph horiz-adv-x="0" />
<glyph horiz-adv-x="682" />
<glyph unicode="&#xd;" horiz-adv-x="512" />
<glyph unicode=" "  horiz-adv-x="512" />
<glyph unicode="&#x09;" horiz-adv-x="512" />
<glyph unicode="&#xa0;" horiz-adv-x="512" />
<glyph unicode="!" horiz-adv-x="512" d="M147 72q0 44 31 77t76 33q44 0 77.5 -33t33.5 -77t-33.5 -76.5t-77.5 -32.5q-45 0 -76 32.5t-31 76.5zM184 1473h144q-6 -442 -6 -789v-389h-127v389q0 154 -2.5 351t-5.5 317z" />
<glyph unicode="&#x22;" horiz-adv-x="921" d="M250 891v567h127v-567h-127zM547 891v567h127v-567h-127z" />
<glyph unicode="#" horiz-adv-x="1243" d="M84 375v112h246l45 299h-271v111h289l60 430h116l-59 -430h299l59 430h115l-57 -430h223v-111h-242l-45 -299h266v-112h-282l-58 -375h-114l57 375h-299l-61 -375h-115l59 375h-231zM449 487h299l43 299h-299z" />
<glyph unicode="$" d="M137 299q0 21 7.5 46.5t30 50t56.5 24.5q35 0 61.5 -24t26.5 -60q0 -31 -21.5 -53t-21.5 -37q0 -38 68.5 -84t161.5 -53v583q-45 20 -75 34.5t-70 37.5t-67 44t-55.5 51t-45.5 61.5t-28 72t-11 86.5q0 150 99.5 243.5t252.5 109.5v112h117v-112q165 -14 254.5 -91.5 t89.5 -175.5q0 -45 -27 -77.5t-63 -32.5q-33 0 -58.5 22.5t-25.5 57.5q0 25 13 47t13 35q0 34 -59.5 68t-136.5 40v-547q48 -22 77 -35.5t73 -38t70.5 -45.5t58 -52t48.5 -63t29 -74.5t12 -90.5q0 -155 -96 -258.5t-272 -120.5v-121h-117v121q-95 7 -168.5 37t-116 73 t-63.5 91t-21 98zM279 1083q0 -87 58.5 -143.5t168.5 -108.5v494q-105 -14 -166 -78.5t-61 -163.5zM623 109q243 26 243 268q0 48 -18 87.5t-54.5 71t-75 54.5t-95.5 49v-530z" />
<glyph unicode="%" horiz-adv-x="1615" d="M141 1165q0 63 17.5 120.5t52 105t92.5 76t133 28.5t133.5 -28t93 -75.5t52.5 -104.5t18 -120t-18 -120.5t-52.5 -105.5t-93 -76.5t-133.5 -28.5t-133 28.5t-92.5 76t-52 104.5t-17.5 120zM254 -16l969 1493h141l-973 -1493h-137zM254 1165q0 -96 45.5 -160.5 t136.5 -64.5t138 65t47 160q0 96 -47 161t-138 65t-136.5 -65t-45.5 -161zM883 293q0 63 18 120.5t52.5 105t93 76t133.5 28.5t133 -28t92.5 -75.5t52 -104.5t17.5 -120t-17.5 -120.5t-52 -106t-92.5 -77t-133 -28.5t-133.5 28.5t-93 76t-52.5 105t-18 120.5zM997 293 q0 -96 46 -160.5t137 -64.5t136.5 64.5t45.5 160.5t-45.5 160.5t-136.5 64.5t-137 -64.5t-46 -160.5z" />
<glyph unicode="&#x26;" horiz-adv-x="1646" d="M125 379q0 74 19.5 136.5t49.5 107.5t78 85t93 67t106 56q-121 197 -121 308q0 108 50 191t127.5 124t168.5 41q138 0 232 -86t94 -221q0 -40 -7.5 -75.5t-25 -66.5t-35 -55.5t-49 -49.5t-54.5 -41.5t-64.5 -38.5t-65.5 -34t-70 -34q107 -152 353 -441q120 158 192 340 h-172v111h475v-111h-170q-89 -240 -250 -436q87 -100 150 -139t125 -39q23 0 39 4t40 19t50 51.5t55 95.5l107 -53q-67 -132 -135.5 -182t-157.5 -50q-103 0 -182 45t-177 156q-204 -201 -430 -201q-99 0 -182.5 34.5t-139 92t-86 132.5t-30.5 157zM256 387 q0 -126 85.5 -215.5t231.5 -89.5q170 0 342 172q-263 309 -383 483q-63 -32 -107.5 -62t-85.5 -72t-62 -96t-21 -120zM481 1143q0 -85 107 -258q50 23 80.5 38t71.5 38t65 44.5t47.5 49.5t34 61.5t10.5 71.5q0 84 -57.5 137t-143.5 53q-98 0 -156.5 -64t-58.5 -171z" />
<glyph unicode="'" horiz-adv-x="512" d="M193 891v567h126v-567h-126z" />
<glyph unicode="(" horiz-adv-x="763" d="M102 475q0 278 98 542.5t287 477.5l93 -70q-171 -203 -259 -448t-88 -502t88 -501t259 -447l-93 -70q-189 214 -287 477t-98 541z" />
<glyph unicode=")" horiz-adv-x="763" d="M184 -473q171 203 258.5 447t87.5 501q0 258 -87.5 503t-258.5 447l92 70q189 -214 287.5 -478t98.5 -542t-98.5 -541t-287.5 -477z" />
<glyph unicode="*" d="M100 1141l39 108l369 -151l20 391l117 -6l-33 -396l381 103l27 -113l-385 -90l213 -330l-94 -63l-209 340l-248 -307l-88 78l260 294z" />
<glyph unicode="+" horiz-adv-x="1474" d="M199 479v113h483v479h113v-479h481v-113h-481v-479h-113v479h-483z" />
<glyph unicode="," horiz-adv-x="512" d="M94 72q0 40 29.5 71t81.5 31q98 0 155.5 -73.5t57.5 -180.5q0 -104 -55.5 -201t-165.5 -157l-64 92q85 44 127.5 116.5t42.5 143.5q0 40 -12 70q-10 24 -31 24q-11 0 -24 -10q-20 -14 -52 -14q-42 0 -66 26t-24 62z" />
<glyph unicode="-" horiz-adv-x="698" d="M109 451v112h485v-112h-485z" />
<glyph unicode="." horiz-adv-x="512" d="M147 72q0 44 31 77t76 33q44 0 77.5 -33t33.5 -77t-33.5 -76.5t-77.5 -32.5q-45 0 -76 32.5t-31 76.5z" />
<glyph unicode="/" horiz-adv-x="827" d="M25 -33l647 1528h127l-647 -1528h-127z" />
<glyph unicode="0" horiz-adv-x="1187" d="M113 723q0 114 16 221t53.5 207t91.5 173.5t136.5 118t183.5 44.5t183.5 -44.5t136.5 -118t91.5 -173.5t53.5 -207t16 -221t-16 -220t-53 -204.5t-91.5 -170.5t-137 -115.5t-183.5 -43.5t-183.5 43.5t-137 115.5t-91.5 170.5t-53 204.5t-16 220zM244 723 q0 -179 37.5 -320.5t118 -230t194.5 -88.5q112 0 192.5 88.5t119 231.5t38.5 321q0 177 -38.5 321.5t-119.5 235t-192 90.5q-86 0 -154.5 -52.5t-110.5 -143t-63.5 -206t-21.5 -247.5z" />
<glyph unicode="1" horiz-adv-x="819" d="M121 1137v133l315 217h86v-1374h250v-113h-635v113h254v1202z" />
<glyph unicode="2" d="M45 0q14 48 34.5 93t41 80.5t54.5 76t58 66.5t68 66t68.5 60.5t76.5 63.5t76 63q74 63 128 117.5t101.5 118.5t72 132.5t24.5 139.5q0 99 -45.5 169.5t-115.5 102t-155 31.5q-79 0 -143 -29t-101 -74t-57 -94.5t-20 -95.5q0 -37 16 -53t49 -16q35 0 58.5 -23.5 t23.5 -60.5q0 -36 -27 -61t-71 -25q-66 0 -117 62t-51 169q0 110 51.5 204t154 153t237.5 59q86 0 164 -26.5t141.5 -76.5t101 -131.5t37.5 -183.5q0 -86 -30.5 -168t-83 -151.5t-117.5 -135t-139.5 -129.5t-142.5 -123t-133.5 -128t-105.5 -133h574q32 0 48.5 2t30 6.5 t19.5 17.5t10 28.5t9 47.5l38 248h117l-61 -459h-967z" />
<glyph unicode="3" d="M92 293q0 81 40.5 136.5t119.5 55.5q41 0 65.5 -25t24.5 -59q0 -35 -25 -59.5t-65 -24.5q-37 0 -37 -26q0 -86 89.5 -150.5t242.5 -64.5q92 0 163 26.5t113 71t63 99.5t21 116q0 60 -22 115.5t-64.5 101t-111.5 72.5t-156 27h-193v116h185q132 0 210.5 87t78.5 202 q0 75 -23.5 130t-64 85t-87 43.5t-100.5 13.5q-88 0 -164 -35.5t-96 -86.5q-4 -12 -4 -19q0 -23 29 -29q29 -8 48 -31t19 -53q0 -41 -29 -61t-65 -20q-56 0 -92.5 39.5t-36.5 115.5q0 125 111 209t280 84q97 0 176 -33t128 -87.5t75.5 -122t26.5 -140.5q0 -108 -54 -199.5 t-161 -136.5q97 -30 164 -94.5t95.5 -139.5t28.5 -157q0 -80 -33 -155t-93 -135t-155 -96t-210 -36q-108 0 -196 28t-143.5 75t-85.5 105.5t-30 121.5z" />
<glyph unicode="4" d="M68 375v84l665 1034h111v-1006h186v-112h-186v-262h186v-113h-508v113h193v262h-647zM227 487h488v756z" />
<glyph unicode="5" d="M111 266q0 75 44 120.5t101 45.5q37 0 65.5 -23t28.5 -63q0 -30 -19.5 -52t-49.5 -28q-48 -10 -48 -35q0 -1 5 -16q25 -62 104.5 -100.5t183.5 -38.5q121 0 209 52.5t130 137.5t42 193q0 96 -36.5 176.5t-114.5 133t-185 52.5q-88 0 -174 -27t-127 -65h-102l53 608 q4 58 39 89.5t94 31.5h381q29 0 37 7.5t10 29.5h125q-7 -91 -43.5 -120t-103.5 -29h-357q-56 0 -59 -54l-39 -418q122 60 275 60q88 0 163 -26.5t128.5 -72t91.5 -106t56.5 -129t18.5 -141.5q0 -94 -32 -181t-93.5 -158t-162 -114t-226.5 -43q-187 0 -300 90.5t-113 212.5z " />
<glyph unicode="6" d="M106 537q0 214 62.5 405.5t200.5 329.5q204 201 530 223l16 -113q-147 -16 -264 -68.5t-197.5 -135t-134 -178.5t-90.5 -216l9 -2q125 191 348 191q193 0 314.5 -141.5t121.5 -360.5q0 -122 -39.5 -221t-105.5 -160.5t-147 -94t-169 -32.5q-96 0 -173 31.5t-129 85 t-87 127.5t-50.5 156t-15.5 174zM233 500q0 -92 19.5 -166t51 -121.5t75 -79t89 -44.5t95.5 -13q61 0 118 23.5t105 69.5t76.5 123.5t28.5 176.5q0 98 -27 175.5t-73 123.5t-103 70t-121 24q-148 0 -241 -103t-93 -259z" />
<glyph unicode="7" d="M39 1034l59 424h981l-295 -592q-8 -16 -71 -139.5t-96.5 -193t-72.5 -172.5t-48 -168v-11q0 -16 15 -25.5t33 -14.5t33 -24.5t15 -51.5q0 -42 -31 -68.5t-72 -26.5q-49 0 -85.5 40t-36.5 118q0 115 66.5 282.5t234.5 503.5l215 431h-602q-43 0 -56.5 -10t-23.5 -60 l-47 -242h-115z" />
<glyph unicode="8" d="M90 375q0 158 80.5 251t241.5 152q-121 50 -185.5 130.5t-64.5 217.5q0 90 35 162.5t93 116.5t128 67t145 23t145.5 -23t128.5 -67t93 -116.5t35 -162.5q0 -130 -63.5 -211t-186.5 -131q56 -21 98.5 -43t86.5 -56.5t72 -76t46 -101t18 -132.5q0 -102 -41.5 -183 t-110 -129.5t-150.5 -74t-171 -25.5t-171 25.5t-150.5 74t-110 129.5t-41.5 183zM221 375q0 -141 99.5 -220t242.5 -79t242.5 79t99.5 220q0 47 -11 88t-27 70.5t-45.5 56.5t-54.5 44t-67 36t-70.5 30t-76.5 27q-66 -23 -108 -41t-89 -48t-73.5 -64t-44 -84.5t-17.5 -114.5z M289 1126q0 -62 21.5 -110.5t64 -82.5t88 -57t110.5 -45q61 21 104.5 44t82 57.5t58.5 83t20 110.5q0 120 -80.5 188t-194.5 68t-194 -68t-80 -188z" />
<glyph unicode="9" d="M106 987q0 122 39.5 221t105.5 160.5t147 94t169 32.5q96 0 173 -31.5t129 -84.5t87 -127t50.5 -156t15.5 -174q0 -215 -62 -406.5t-200 -329.5q-204 -201 -531 -223l-16 113q147 16 264 68.5t197.5 135t134 178.5t90.5 216l-8 2q-125 -191 -348 -191q-194 0 -315.5 142 t-121.5 360zM238 989q0 -98 27 -175.5t72.5 -124t102.5 -70t121 -23.5q148 0 241 103t93 259q0 92 -19.5 166t-51 121.5t-75 79t-89 44.5t-95.5 13q-61 0 -118 -23.5t-104.5 -69.5t-76 -123.5t-28.5 -176.5z" />
<glyph unicode=":" horiz-adv-x="512" d="M147 57q0 44 31 77.5t76 33.5q44 0 77.5 -33.5t33.5 -77.5t-33 -76t-78 -32t-76 32t-31 76zM147 692q0 44 31 77.5t76 33.5q44 0 77.5 -33.5t33.5 -77.5t-33 -76t-78 -32t-76 32t-31 76z" />
<glyph unicode=";" horiz-adv-x="512" d="M133 -358q85 44 127.5 118.5t42.5 151.5q0 23 -9.5 45.5t-23.5 22.5q-3 0 -17 -4.5t-30 -4.5q-41 0 -64.5 26t-23.5 62q0 40 29.5 71.5t81.5 31.5q73 0 122.5 -71t49.5 -183q0 -104 -55.5 -201.5t-165.5 -157.5zM147 692q0 44 31 77.5t76 33.5q44 0 77.5 -33.5 t33.5 -77.5t-33 -76t-78 -32t-76 32t-31 76z" />
<glyph unicode="&#x3c;" horiz-adv-x="1474" d="M274 489v99l924 471v-127l-776 -395l776 -392v-127z" />
<glyph unicode="=" horiz-adv-x="1474" d="M217 305v113h1040v-113h-1040zM217 653v113h1040v-113h-1040z" />
<glyph unicode="&#x3e;" horiz-adv-x="1474" d="M274 18v127l775 392l-775 395v127l924 -471v-99z" />
<glyph unicode="?" horiz-adv-x="811" d="M61 1200q0 127 98.5 211t250.5 84q62 0 121 -20.5t110 -59.5t82 -106t31 -152q0 -120 -68 -211q-30 -41 -79 -85.5t-90 -80t-79.5 -78t-61 -98.5t-22.5 -123q0 -79 8 -180h-116q-17 102 -17 182q0 47 7 87t24.5 77.5t32 63t47 60.5t49.5 52t60 56t59 55q115 108 115 225 q0 100 -65 160.5t-167 60.5q-75 0 -131.5 -32t-75.5 -84q-6 -18 -6 -33q0 -21 11.5 -34t27.5 -13q39 0 63.5 -25.5t24.5 -58.5q0 -35 -26.5 -60.5t-69.5 -25.5q-71 0 -109.5 56.5t-38.5 129.5zM201 72q0 44 30.5 77t75.5 33q44 0 77.5 -33t33.5 -77t-33.5 -76.5t-77.5 -32.5 q-45 0 -75.5 32.5t-30.5 76.5z" />
<glyph unicode="@" horiz-adv-x="1593" d="M113 496q0 143 51 279t143.5 245t236.5 175.5t316 66.5q126 0 231.5 -38.5t176 -102.5t120 -148.5t71.5 -175.5t22 -185q0 -128 -47 -242.5t-139 -189t-208 -74.5q-144 0 -182 95q-88 -92 -196 -92q-100 0 -165 71.5t-65 206.5q0 134 52.5 254t145 194t200.5 74 q86 0 139 -63l8 37h119l-135 -568q-4 -16 -4 -41q0 -30 19 -44.5t73 -14.5q105 0 183.5 116t78.5 281q0 80 -17.5 155.5t-57 145.5t-96.5 122t-141.5 83t-187.5 31q-115 0 -215.5 -36.5t-174.5 -99.5t-127.5 -146t-80.5 -177t-27 -192q0 -143 38.5 -257.5t114.5 -198 t196.5 -128.5t277.5 -45q114 0 201 35.5t207 109.5l59 -96q-121 -85 -242.5 -123.5t-224.5 -38.5q-157 0 -284 39.5t-212.5 107t-142.5 162.5t-82.5 202t-25.5 229zM600 387q0 -81 34.5 -124.5t74.5 -43.5q61 0 125.5 64t83.5 145q5 23 18.5 70.5t21 85.5t7.5 73 q0 64 -22.5 102t-63.5 38q-110 0 -194.5 -123.5t-84.5 -286.5z" />
<glyph unicode="A" horiz-adv-x="1499" d="M74 0v113h149l465 1382h105l475 -1382h157v-113h-467v113h172l-143 403h-504l-133 -403h166v-113h-442zM524 629h428l-217 631z" />
<glyph unicode="B" horiz-adv-x="1263" d="M94 1346v112h604q91 0 167 -33.5t125 -88t75.5 -123t26.5 -140.5q0 -98 -48 -180.5t-141 -128.5q116 -40 181 -138.5t65 -217.5q0 -61 -17 -119.5t-52.5 -111t-85.5 -92t-121 -62.5t-154 -23h-619v113h152v1233h-158zM381 113h313q153 0 237.5 84t84.5 211q0 42 -12 82.5 t-38 78.5t-63.5 66.5t-93.5 45.5t-123 17h-305v-585zM381 811h305q129 0 200.5 77t71.5 185q0 110 -74 191.5t-204 81.5h-299v-535z" />
<glyph unicode="C" horiz-adv-x="1323" d="M113 721q0 218 74 394t211.5 278t312.5 102q211 0 338 -133v96h114l17 -373l-101 -6q-29 148 -124 225.5t-244 77.5q-207 0 -337 -178.5t-130 -476.5q0 -301 129 -475t338 -174q144 0 241.5 79t124.5 238l103 -4l-13 -391h-114l-4 106q-59 -64 -149 -103.5t-189 -39.5 q-183 0 -320 99t-207.5 269.5t-70.5 389.5z" />
<glyph unicode="D" horiz-adv-x="1392" d="M104 0v113h156v1233h-156v112h553q128 0 233.5 -40t176.5 -107t120 -157.5t71 -189.5t22 -204q0 -166 -39.5 -303t-118 -240t-205 -160t-290.5 -57h-523zM389 113h238q255 0 387.5 171.5t132.5 475.5q0 85 -17.5 167t-56 158.5t-94 134t-139 92t-183.5 34.5h-268v-1233z " />
<glyph unicode="E" horiz-adv-x="1284" d="M90 0v113h166v1233h-166v112h1018l6 -360l-117 -4l-12 172q-3 57 -14 68.5t-62 11.5h-526v-547h279v172h126v-469h-126v182h-279v-571h549q59 0 72.5 11t21.5 62l33 232l115 -4l-35 -414h-1049z" />
<glyph unicode="F" horiz-adv-x="1241" d="M90 0v113h141v1233h-141v112h1018l6 -397l-117 -4l-14 217q-3 51 -14 61.5t-58 10.5h-551v-547h332v172h129v-469h-129v182h-332v-571h138v-113h-408z" />
<glyph unicode="G" horiz-adv-x="1384" d="M113 725q0 118 22.5 228t70.5 209t117.5 173t169.5 117t220 43q193 0 338 -135v98h112l17 -373l-103 -6q-17 79 -53.5 138t-86 94t-105.5 52t-119 17q-113 0 -204 -54.5t-147.5 -147t-86 -208.5t-29.5 -245t29.5 -243.5t85.5 -205.5t147 -144.5t205 -53.5 q177 0 264.5 106t93.5 287h-160v113h428v-113h-139q-9 -251 -138 -379.5t-349 -128.5q-121 0 -222.5 44t-170 117.5t-116 172t-69.5 206.5t-22 222z" />
<glyph unicode="H" horiz-adv-x="1472" d="M94 1346v112h471v-112h-176v-543h686v543h-162v112h465v-112h-174v-1233h154v-113h-440v113h157v577h-686v-577h168v-113h-457v113h160v1233h-166z" />
<glyph unicode="I" horiz-adv-x="663" d="M94 1346v112h475v-112h-176v-1233h168v-113h-461v113h162v1233h-168z" />
<glyph unicode="J" horiz-adv-x="833" d="M61 16q0 52 28 82.5t69 30.5q36 0 60 -25t24 -59q0 -25 -19 -49q-12 -15 -12 -27q1 -16 27.5 -24t54.5 -8q43 0 77.5 24t51.5 66q27 67 27 182v1137h-193v112h514v-112h-192v-1121q0 -155 -31 -235q-28 -76 -95 -122t-155 -46q-104 0 -170 55t-66 139z" />
<glyph unicode="K" horiz-adv-x="1394" d="M94 0v113h166v1233h-156v112h445v-112h-160v-1233h160v-113h-455zM395 784l557 562h-133v112h467v-112h-166l-559 -564l596 -669h164v-113h-467v113h135z" />
<glyph unicode="L" horiz-adv-x="1216" d="M90 0v113h141v1233h-141v112h416v-112h-146v-1233h500q61 0 73.5 10t18.5 63l35 287l115 -4l-35 -469h-977z" />
<glyph unicode="M" horiz-adv-x="1716" d="M72 0v113h157v1233h-157v112h331l451 -1237l444 1237h322v-112h-145v-1233h163v-113h-446v113h154v1142q-2 -3 -17 -50.5t-37.5 -114.5t-36.5 -107l-354 -983h-98l-365 1001q-45 119 -84 248v-1136h168v-113h-450z" />
<glyph unicode="N" horiz-adv-x="1540" d="M90 0v113h176v1233h-176v112h316l757 -1204v1092h-157v112h456v-112h-170v-1366h-106l-793 1261v-1128h174v-113h-477z" />
<glyph unicode="O" horiz-adv-x="1458" d="M113 729q0 114 23.5 223t73.5 207.5t121 173t174 118.5t224 44t223.5 -44t174 -119t122 -174t74 -209t23.5 -224t-23.5 -222.5t-73.5 -206.5t-121.5 -172t-174.5 -117.5t-224 -43.5t-224 44t-174 118.5t-121 173t-73.5 207.5t-23.5 223zM246 729q0 -128 32 -244.5 t91 -208.5t152.5 -146t207.5 -54q115 0 208.5 54t152.5 145t90.5 206.5t31.5 243.5t-32 245.5t-91 209.5t-152.5 147t-207.5 55t-207.5 -54t-152.5 -146t-91 -208.5t-32 -244.5z" />
<glyph unicode="P" horiz-adv-x="1159" d="M72 0v113h168v1233h-168v112h530q115 0 205 -34t145 -92t83 -130.5t28 -154.5q0 -79 -28 -152.5t-82 -135t-143.5 -98t-201.5 -36.5q-136 0 -241 24v-536h168v-113h-463zM367 760q115 -23 237 -23q108 0 184 44t110 112t34 151q0 61 -18.5 113.5t-56.5 95.5t-103 68 t-150 25h-237v-586z" />
<glyph unicode="Q" horiz-adv-x="1458" d="M113 721q0 115 23.5 225.5t74 210t121.5 174.5t173.5 119.5t223.5 44.5t223.5 -44.5t174 -120t122 -175.5t74 -210.5t23.5 -225.5q0 -109 -21 -213t-66 -199.5t-109.5 -169.5t-156.5 -123.5t-202 -60.5q8 -138 84 -213.5t227 -75.5h188v-115h-198q-94 0 -168.5 25 t-120.5 64t-77.5 93.5t-45 108.5t-16.5 113q-136 15 -243.5 87t-173.5 180.5t-100 236.5t-34 264zM244 723q0 -103 20 -199t60.5 -179t97.5 -145.5t136 -98t171 -35.5q93 0 172 35.5t136 97t97.5 144.5t60 178.5t19.5 197.5q0 103 -20 200t-60.5 180.5t-97.5 146t-136 98.5 t-171 36t-171 -35.5t-136 -98t-97.5 -145.5t-60.5 -179t-20 -199z" />
<glyph unicode="R" horiz-adv-x="1339" d="M90 1346v112h590q176 0 295 -104.5t119 -268.5q0 -128 -72.5 -222t-194.5 -130q40 -21 71.5 -47.5t52 -51t35.5 -60.5t23 -61t13 -70t6.5 -69t3 -76t2.5 -75q3 -68 23 -97.5t73 -29.5q42 0 111 37l43 -104q-101 -49 -164 -49q-209 0 -217 231q-1 19 -1.5 56.5t-1.5 66 t-3 49.5q-14 151 -91 231t-231 80h-204v-581h133v-113h-404v113h142v1233h-152zM371 807h307q136 0 210.5 79.5t74.5 188.5q0 111 -77.5 191t-217.5 80h-297v-539z" />
<glyph unicode="S" horiz-adv-x="1153" d="M125 -2v381h98q19 -145 119.5 -223t230.5 -78q156 0 247 87t91 230q0 66 -27 116t-72 81.5t-104 56t-124 44.5t-130 41.5t-124 52t-104 71t-72 104.5t-27 146q0 173 113 280t303 107q93 0 176.5 -39.5t122.5 -93.5v96h116v-377h-98q-14 77 -47 136.5t-77 94t-91.5 51.5 t-97.5 17q-140 0 -214.5 -77t-74.5 -189q0 -64 27 -112t72 -78t104 -52.5t124 -42t130 -40.5t124 -52.5t104 -73.5t72 -108.5t27 -153.5q0 -193 -127 -315.5t-337 -122.5q-99 0 -197 38.5t-139 94.5v-98h-117z" />
<glyph unicode="T" horiz-adv-x="1345" d="M94 1061l8 397h1141l8 -397l-112 -4l-15 225q-3 50 -12 59t-59 9h-316v-1237h168v-113h-459v113h160v1237h-309q-51 0 -62 -10t-14 -58l-14 -225z" />
<glyph unicode="U" horiz-adv-x="1443" d="M61 1346v112h480v-112h-179v-957q0 -78 31 -139.5t83 -98t115 -55t132 -18.5t131 18.5t113.5 55t81.5 98t30 139.5v957h-176v112h479v-112h-176v-938q0 -93 -29 -169.5t-76.5 -126.5t-111 -84.5t-130.5 -49.5t-136 -15t-135.5 15t-131 49.5t-113 84.5t-78 126.5 t-29.5 169.5v938h-175z" />
<glyph unicode="V" horiz-adv-x="1476" d="M61 1346v112h467v-112h-170l381 -1149l400 1149h-166v112h442v-112h-149l-475 -1383h-105l-465 1383h-160z" />
<glyph unicode="W" horiz-adv-x="2088" d="M66 1346v112h464v-112h-170l355 -1153l262 657l-172 496h-125v112h735v-112h-117l-192 -496l229 -655l398 1151h-170v112h465v-112h-156l-486 -1383h-102l-248 715l-280 -715h-101l-432 1383h-157zM934 1346l110 -324l127 324h-237z" />
<glyph unicode="X" horiz-adv-x="1400" d="M78 0v113h160l370 641l-366 592h-164v112h459v-112h-138l287 -461l266 461h-123v112h453v-112h-180l-338 -584l403 -649h166v-113h-461v113h136l-322 516l-299 -516h143v-113h-452z" />
<glyph unicode="Y" horiz-adv-x="1413" d="M72 1346v112h467v-112h-152l324 -574l321 574h-145v112h454v-112h-163l-406 -709v-524h186v-113h-499v113h186v524l-401 709h-172z" />
<glyph unicode="Z" horiz-adv-x="1368" d="M72 0l895 1348h-561q-72 0 -88.5 -16t-22.5 -89l-14 -186l-115 4l8 397h1022l-901 -1347h672q56 0 71 12t21 63l35 287l112 -4l-32 -469h-1102z" />
<glyph unicode="[" horiz-adv-x="827" d="M244 -532v2027h426v-115h-297v-1798h297v-114h-426z" />
<glyph unicode="\" horiz-adv-x="827" d="M20 1495h127l656 -1528h-127z" />
<glyph unicode="]" horiz-adv-x="827" d="M158 -418h297v1798h-297v115h426v-2027h-426v114z" />
<glyph unicode="^" horiz-adv-x="1474" d="M289 705l399 790h98l400 -790h-142l-307 620l-309 -620h-139z" />
<glyph unicode="_" horiz-adv-x="987" d="M0 -104h987v-113h-987v113z" />
<glyph unicode="`" horiz-adv-x="1024" d="M211 1458h164l237 -360h-123z" />
<glyph unicode="a" horiz-adv-x="1003" d="M111 211q0 135 130 211t390 88v184q0 66 -31 94q-41 33 -125 33q-50 0 -88 -9t-55 -21.5t-17 -24.5q0 -5 11.5 -22.5t11.5 -38.5q0 -41 -28 -65t-64 -24q-38 0 -65 26t-27 75q0 88 92.5 152.5t228.5 64.5q62 0 123.5 -18t101.5 -54q56 -50 56 -155v-551q0 -48 13 -64 t36 -16q24 0 44 30t42 99l106 -35q-56 -207 -190 -207q-102 0 -148 80q-115 -80 -253 -80q-122 0 -208.5 66.5t-86.5 181.5zM236 211q0 -56 49.5 -95.5t124.5 -39.5q38 0 74 8t61.5 19.5t45.5 24.5t30 23t10 15v231q-111 -3 -191 -19.5t-123 -43t-62 -57t-19 -66.5z" />
<glyph unicode="b" horiz-adv-x="1081" d="M18 1346v112q122 0 185.5 7.5t120.5 29.5v-711q52 74 125.5 112t154.5 38q96 0 172.5 -43t122 -114t69 -156t23.5 -175q0 -72 -14 -140t-45.5 -130.5t-76.5 -109.5t-111 -75t-146 -28q-86 0 -164.5 40.5t-109.5 98.5v-102h-267v113h140v1233h-179zM326 444q0 -49 7 -96.5 t26.5 -97.5t49 -87t78.5 -61t111 -24q85 0 146 52.5t89.5 135t28.5 183.5q0 102 -29 184.5t-89.5 134t-143.5 51.5q-136 0 -205 -101.5t-69 -273.5z" />
<glyph unicode="c" horiz-adv-x="958" d="M90 436q0 95 29.5 183.5t83 159t139 113t188.5 42.5q143 0 233.5 -70t90.5 -162q0 -56 -28 -85t-68 -29q-36 0 -63.5 22.5t-28.5 59.5q0 28 16 47t16 28q0 11 -15.5 27.5t-56.5 32.5t-96 16q-100 0 -172.5 -57t-105.5 -142.5t-33 -185.5q0 -153 78.5 -256.5t218.5 -103.5 q101 0 168.5 73t89.5 183l119 -29q-28 -145 -129.5 -242.5t-247.5 -97.5q-100 0 -182.5 38.5t-134.5 104.5t-80.5 150.5t-28.5 179.5z" />
<glyph unicode="d" horiz-adv-x="1087" d="M90 446q0 90 23.5 175t69.5 156t122 114t172 43q79 0 158.5 -40.5t120.5 -102.5v555h-164v112q120 0 177.5 7.5t115.5 29.5v-1382h153v-113q-223 0 -282 -6v110q-40 -63 -112 -102t-161 -39q-80 0 -146 28t-111 75t-76.5 109.5t-45.5 130.5t-14 140zM219 446 q0 -157 69 -262.5t195 -105.5q271 0 271 368q0 75 -15.5 140t-47 118.5t-85.5 84t-125 30.5q-83 0 -143.5 -52.5t-89.5 -135.5t-29 -185z" />
<glyph unicode="e" horiz-adv-x="991" d="M90 449q0 127 47 235.5t143 179t224 70.5q119 0 204 -60t130 -163q42 -100 45 -238h-666l-2 -22q0 -158 86 -266.5t215 -108.5q94 0 164.5 60.5t107.5 182.5l115 -22q-39 -152 -141 -243t-246 -91q-105 0 -188.5 42t-134 112t-77 155t-26.5 177zM236 586h512 q-19 107 -85.5 171t-160.5 64q-90 0 -165 -61t-101 -174z" />
<glyph unicode="f" horiz-adv-x="626" d="M41 784v113h184v186q0 197 60 285q80 127 245 127q96 0 166 -57.5t70 -132.5q0 -48 -26 -75.5t-62 -27.5t-63 22t-27 58q0 12 7 34.5t7 29.5q0 15 -24 30t-56 15q-40 0 -74.5 -21t-54.5 -53q-41 -67 -41 -234v-186h221v-113h-221v-671h178v-113h-475v113h170v671h-184z " />
<glyph unicode="g" horiz-adv-x="1048" d="M100 -246q0 74 44.5 143t119.5 109q-74 14 -117 55t-43 109t52.5 113.5t124.5 58.5q-55 37 -92 102t-37 146q0 65 23.5 126t67 110t112 78.5t151.5 29.5q67 0 133 -28t113 -77q66 105 153 105q52 0 81.5 -28.5t29.5 -63.5t-23 -60.5t-65 -25.5q-41 0 -66 32 q-31 -19 -31 -59q0 -1 5.5 -20t11.5 -51.5t6 -67.5q0 -131 -98.5 -230.5t-237.5 -99.5q-45 0 -83 6t-52 6q-66 0 -111 -29t-45 -65q0 -29 36 -49t108 -20q38 0 113.5 2t113.5 2q65 0 113.5 -4t106 -20t94.5 -43.5t62 -78.5t25 -121t-37 -137.5t-102.5 -121t-163.5 -86.5 t-211 -33q-168 0 -276.5 80.5t-108.5 205.5zM227 -233q0 -78 73 -132.5t194 -54.5q88 0 161.5 23.5t119 62t70.5 83.5t25 91q0 44 -17.5 75t-41.5 47t-63 25t-68.5 11t-71.5 2q-90 0 -154.5 -10.5t-121.5 -46.5q-52 -32 -78.5 -80t-26.5 -96zM279 598q0 -92 62 -158.5 t175 -66.5q95 0 153 64t58 151q0 93 -59.5 163t-163.5 70q-105 0 -165 -66t-60 -157z" />
<glyph unicode="h" horiz-adv-x="1046" d="M43 1346v112q107 0 157 7.5t109 29.5v-713q44 68 125.5 110t155.5 42q129 0 209 -77t80 -214v-530h122v-113h-372v113h123v508q0 200 -174 200q-112 0 -190.5 -85.5t-78.5 -184.5v-438h127v-113h-385v113h131v1233h-139z" />
<glyph unicode="i" horiz-adv-x="536" d="M43 0v113h168v671h-168v113q211 0 293 37v-821h153v-113h-446zM162 1298q0 39 27 68t67 29q39 0 66.5 -28.5t27.5 -68.5t-27 -67t-67 -27q-41 0 -67.5 27.5t-26.5 66.5z" />
<glyph unicode="j" horiz-adv-x="536" d="M-29 -436q0 36 20 59t58 23q13 0 28 -11t23 -26q21 -47 41 -47q30 0 50 39.5t20 130.5v1052h-164v113q209 0 291 37v-1202q0 -140 -56 -212.5t-157 -72.5q-76 0 -115 35t-39 82zM162 1298q0 39 27 68t67 29q39 0 66.5 -28.5t27.5 -68.5t-27 -67t-67 -27q-41 0 -67.5 27.5 t-26.5 66.5z" />
<glyph unicode="k" horiz-adv-x="1054" d="M43 1346v112q119 0 176 7.5t115 29.5v-1382h108v-113h-383v113h148v1233h-164zM340 512l326 272h-101v113h391v-113h-120l-326 -274l356 -397h144v-113h-402v113h88z" />
<glyph unicode="l" horiz-adv-x="536" d="M43 0v113h164v1233h-164v112q119 0 176 7.5t115 29.5v-1382h155v-113h-446z" />
<glyph unicode="m" horiz-adv-x="1583" d="M45 784v113q184 0 266 37v-150q50 70 123.5 110t145.5 40q82 0 153.5 -37t104.5 -113q51 66 132 108t160 42q54 0 103 -15t91.5 -47t67.5 -90t25 -135v-534h121v-113h-373v113h125v512q0 60 -13 100.5t-37.5 60.5t-51 27.5t-62.5 7.5q-117 0 -189.5 -77.5t-72.5 -186.5 v-444h121v-113h-371v113h123v512q0 60 -13 100.5t-37.5 60.5t-51 27.5t-62.5 7.5q-112 0 -187 -79.5t-75 -184.5v-444h129v-113h-385v113h129v671h-139z" />
<glyph unicode="n" horiz-adv-x="1052" d="M45 784v113q101 0 148.5 6.5t117.5 30.5v-148q44 66 121.5 107t165.5 41q50 0 97.5 -15t91.5 -46.5t71 -90t27 -135.5v-534h123v-113h-373v113h123v512q0 110 -47 153t-127 43q-118 0 -195.5 -80.5t-77.5 -183.5v-444h127v-113h-385v113h131v671h-139z" />
<glyph unicode="o" horiz-adv-x="1032" d="M90 449q0 93 27 178.5t78 154.5t133 110.5t184 41.5q103 0 186.5 -41.5t136 -111t80 -156t27.5 -179.5t-27.5 -178t-79.5 -154t-135.5 -110t-187.5 -41q-102 0 -184 41.5t-133 110.5t-78 155t-27 179zM219 449q0 -97 31.5 -180t100 -138t161.5 -55q96 0 166 54.5 t102.5 137t32.5 178.5q0 72 -19 138t-55.5 119.5t-95 85.5t-131.5 32q-93 0 -161.5 -55t-100 -138t-31.5 -179z" />
<glyph unicode="p" horiz-adv-x="1071" d="M33 784v113q105 0 158 7t122 30v-150q52 74 126 112t155 38q96 0 172.5 -43t122 -114t69 -156t23.5 -175q0 -72 -14 -140t-45.5 -130.5t-76.5 -109.5t-111 -75t-146 -28q-86 0 -165 40.5t-110 98.5v-520h142v-114h-410v114h141v1202h-153zM315 444q0 -63 13 -122.5 t41.5 -116.5t85 -92t133.5 -35q85 0 146 52.5t89.5 135t28.5 183.5q0 102 -29 184.5t-89.5 134t-143.5 51.5q-136 0 -205.5 -102t-69.5 -273z" />
<glyph unicode="q" horiz-adv-x="1073" d="M90 446q0 71 14.5 140t46 132.5t76.5 111t110 76t142 28.5q79 0 158.5 -40.5t120.5 -102.5v106h262v-113h-135v-1202h141v-114h-405v114h137v522q-40 -63 -112 -102t-161 -39q-80 0 -146 28t-111.5 75t-77 109.5t-46 130.5t-14.5 140zM219 446q0 -156 70 -262t196 -106 q271 0 271 368q0 75 -15.5 140t-47 118.5t-85.5 84t-125 30.5q-83 0 -144 -52.5t-90.5 -135.5t-29.5 -185z" />
<glyph unicode="r" horiz-adv-x="778" d="M45 0v113h148v671h-148v113q103 0 154 7t120 30v-158q50 72 118.5 115t146.5 43q70 0 107.5 -39.5t37.5 -91.5q0 -42 -25 -73.5t-67 -31.5q-31 0 -53.5 21t-22.5 57q0 24 -6 34.5t-23 10.5q-37 0 -78 -31.5t-75 -80.5q-30 -45 -45 -108.5t-15 -178.5v-309h154v-113h-428z " />
<glyph unicode="s" horiz-adv-x="888" d="M113 0v315h98l10 -63q13 -87 78.5 -131.5t175.5 -44.5q77 0 124.5 43.5t47.5 111.5q0 29 -13 53t-31.5 40t-52.5 31.5t-60 24t-70 21.5q-54 15 -87.5 27t-79 35.5t-71 50t-44.5 69.5t-19 97q0 103 78.5 178.5t216.5 75.5q66 0 122 -24t80 -52v60h109v-291h-98 q-7 95 -64.5 145.5t-148.5 50.5q-80 0 -125 -39t-45 -102q0 -28 12.5 -51t29 -38t49 -30t56 -23.5t66.5 -21.5t65 -20.5t61 -23t61 -29t50.5 -36t43.5 -46.5t25.5 -58t10.5 -74q0 -110 -82 -189t-217 -79q-89 0 -154.5 27.5t-97.5 64.5l-2 -55h-108z" />
<glyph unicode="t" horiz-adv-x="647" d="M25 784v113h168v215l126 18v-233h234v-113h-234v-598q0 -53 26.5 -81.5t66.5 -28.5q38 0 69 39.5t51 95.5l109 -47q-31 -87 -93 -144t-151 -57q-94 0 -149 58.5t-55 150.5v612h-168z" />
<glyph unicode="u" horiz-adv-x="1036" d="M29 784v113h266v-625q0 -101 45.5 -149.5t128.5 -48.5q109 0 188.5 76t79.5 190v444h-139v113h266v-784h127v-113q-168 0 -254 -6v110q-43 -64 -120.5 -102.5t-151.5 -38.5q-134 0 -215.5 73t-81.5 214v534h-139z" />
<glyph unicode="v" horiz-adv-x="1034" d="M43 784v113h356v-113h-102l225 -614l221 614h-110v113h360v-113h-123l-305 -809h-100l-305 809h-117z" />
<glyph unicode="w" horiz-adv-x="1480" d="M33 784v113h338v-113h-95l185 -583l223 696h104l224 -696l186 583h-106v113h356v-113h-125l-268 -800h-103l-225 684l-221 -684h-103l-260 800h-110z" />
<glyph unicode="x" horiz-adv-x="989" d="M45 0v113h129l248 348l-242 323h-125v113h342v-113h-63l160 -225l151 225h-80v113h342v-113h-125l-221 -313l268 -358h119v-113h-342v113h70l-187 258l-176 -258h74v-113h-342z" />
<glyph unicode="y" horiz-adv-x="1005" d="M47 784v113h356v-113h-108l223 -585l209 585h-106v113h354v-113h-119l-367 -997q-67 -183 -112 -246q-61 -86 -152 -86q-55 0 -93 33t-38 76q0 36 22.5 60t57.5 24q27 0 43 -13t24 -25.5t13 -12.5q36 0 74 100q11 28 34 85.5t32 81t25 68t32 93.5l-291 759h-113z" />
<glyph unicode="z" horiz-adv-x="933" d="M61 0l560 791h-332q-34 0 -47 -7.5t-17 -33.5l-24 -160l-105 10l21 297h731l-559 -791h334q43 0 55.5 12.5t13.5 61.5l8 164h109v-344h-748z" />
<glyph unicode="{" horiz-adv-x="823" d="M104 424v115q59 0 91.5 5.5t56.5 26t32.5 58t8.5 102.5v445q0 97 19 158.5t65 97t111.5 48.5t170.5 13v-115q-58 0 -91.5 -2t-63.5 -11t-44 -22.5t-24.5 -41t-13 -61.5t-2.5 -89v-387q0 -112 -17 -178t-73 -105q56 -39 73 -104.5t17 -177.5v-387q0 -53 3 -87t13.5 -61.5 t25 -41.5t44 -23.5t64 -12t89.5 -2.5v-114q-105 0 -170.5 13t-111.5 48.5t-65 97t-19 158.5v444q0 54 -7.5 90t-20 56.5t-38.5 31t-51.5 13t-71.5 2.5z" />
<glyph unicode="|" horiz-adv-x="663" d="M266 -532v2007h131v-2007h-131z" />
<glyph unicode="}" horiz-adv-x="823" d="M164 -416q57 0 91 2t64 11.5t44 22.5t24.5 41t13 62t2.5 89v387q0 111 17.5 177t73.5 105q-56 39 -73.5 105.5t-17.5 177.5v387q0 53 -3 87t-13.5 61t-25 41t-44 23.5t-63.5 12t-90 2.5v115q105 0 170.5 -13t111.5 -48.5t65 -97t19 -158.5v-445q0 -45 4.5 -77t15.5 -53.5 t24 -34t37.5 -18.5t47 -7.5t60.5 -1.5v-115q-59 0 -91.5 -6t-56.5 -26.5t-32.5 -58t-8.5 -102.5v-444q0 -97 -19 -158.5t-65 -97t-111.5 -48.5t-170.5 -13v114z" />
<glyph unicode="~" horiz-adv-x="1474" d="M260 487q45 75 123 128t149 53q55 0 114.5 -23t102.5 -51t96 -51t97 -23q34 0 56 6t59 37t78 92l79 -80q-40 -75 -113.5 -124.5t-148.5 -49.5q-58 0 -119.5 23.5t-104.5 51.5t-95.5 51.5t-95.5 23.5q-49 0 -90.5 -26.5t-108.5 -114.5z" />
<glyph unicode="&#xa1;" horiz-adv-x="512" d="M147 868q0 44 33.5 76.5t77.5 32.5q45 0 76 -32.5t31 -76.5t-31 -77t-76 -33q-44 0 -77.5 33t-33.5 77zM184 -532q6 441 6 788v389h127v-389q0 -154 2.5 -351t5.5 -317l3 -120h-144z" />
<glyph unicode="&#xa2;" d="M160 713q0 84 22.5 164.5t65.5 150t113.5 117.5t158.5 61v254h127v-252q113 -14 206 -92.5t93 -175.5q0 -51 -26 -81t-64 -30q-37 0 -63.5 27t-26.5 64q0 33 22 55q7 7 7 16q0 14 -15 29q-43 54 -133 72v-742q73 21 123 87.5t76 166.5l123 -24q-87 -310 -322 -349v-268 h-127v268q-90 13 -160.5 59.5t-113 114.5t-64.5 146.5t-22 161.5zM291 715q0 -89 25.5 -164.5t78 -130.5t125.5 -72v742q-106 -27 -167.5 -132t-61.5 -243z" />
<glyph unicode="&#xa3;" d="M4 0q0 137 100 229q16 14 47.5 39.5t54.5 47t40 46.5q97 138 139 338h-301v113h322q50 277 82 381q63 202 177 265q62 34 144 34q85 0 129.5 -42t44.5 -101q0 -36 -25.5 -64.5t-66.5 -28.5q-36 0 -60 22t-24 56q0 4 2 14t2 15q0 14 -14 14q-32 0 -58 -11t-46.5 -29.5 t-38.5 -56t-31.5 -75.5t-29 -105.5t-27 -128.5t-29.5 -159h309v-113h-332q-27 -129 -65.5 -223t-100.5 -174q47 -7 93.5 -33.5t83 -58t71 -62t70.5 -51t69 -20.5q69 0 120.5 41t51.5 108q0 6 -1.5 10t-6.5 7t-8 4.5t-12.5 4.5t-14.5 5q-53 20 -53 74q0 40 27.5 64t66.5 24 q58 0 89.5 -46t31.5 -116q0 -51 -18 -101.5t-53 -94.5t-94 -71.5t-132 -27.5q-59 0 -111.5 23.5t-90 56.5t-72.5 66.5t-76 57t-84 23.5q-74 0 -116 -55t-42 -135h-133z" />
<glyph unicode="&#xa4;" d="M129 96l113 111q-80 103 -80 242q0 129 80 241l-109 111l82 82l109 -113q114 82 241 82q133 0 240 -82l113 113l79 -82l-110 -111q78 -106 78 -239q0 -140 -80 -244l112 -113l-84 -82l-110 113q-102 -78 -238 -78q-143 0 -241 80l-115 -113zM272 451q0 -124 84 -208.5 t209 -84.5q121 0 205 83.5t84 209.5q0 127 -84 209.5t-205 82.5q-123 0 -208 -83.5t-85 -208.5z" />
<glyph unicode="&#xa5;" d="M10 1325v115h467v-115h-155l245 -530l244 530h-149v115h454v-115h-162l-286 -594h270v-115h-309v-145h309v-113h-309v-245h186v-113h-500v113h187v245h-309v113h309v145h-309v115h270l-283 594h-170z" />
<glyph unicode="&#xa6;" horiz-adv-x="663" d="M266 256h131v-788h-131v788zM266 743v752h131v-752h-131z" />
<glyph unicode="&#xa7;" d="M121 565q0 97 51.5 178t126.5 136q-117 99 -117 260q0 149 103.5 245.5t277.5 96.5q173 0 274 -81.5t101 -197.5q0 -50 -25.5 -96.5t-78.5 -46.5q-40 0 -62 25t-22 59t23.5 62t23.5 46q0 17 -13 33q-29 36 -91 59t-130 23q-131 0 -194.5 -60.5t-63.5 -166.5 q0 -57 24 -101.5t64.5 -74.5t93 -55t111 -48t116.5 -48t110.5 -60t93 -79.5t64.5 -111.5t24 -151q0 -97 -49 -179.5t-121 -144.5q108 -98 108 -250q0 -160 -110.5 -265.5t-309.5 -105.5q-175 0 -285 83t-110 192q0 63 36 108.5t81 45.5q34 0 59 -24.5t25 -62.5 q0 -42 -33 -67q-31 -22 -31 -41q0 -18 23 -41q36 -34 102.5 -56t138.5 -22q140 0 215.5 70t75.5 190q0 48 -16.5 86t-49 66t-64 46t-77.5 38q-28 12 -77.5 32t-79.5 32.5t-74 33t-71 39t-61 45t-54.5 56.5t-39.5 67.5t-27.5 83.5t-8.5 100zM244 565q0 -67 24 -120.5t60 -87 t90.5 -64t103 -49t110.5 -43t101 -45.5q62 45 106 112t44 146q0 94 -42.5 155t-119.5 105q-55 31 -163 73.5t-148 61.5q-70 -44 -118 -106t-48 -138z" />
<glyph unicode="&#xa8;" horiz-adv-x="1024" d="M252 1237q0 37 25.5 63.5t62.5 26.5t63.5 -26.5t26.5 -63.5t-26.5 -62.5t-63.5 -25.5t-62.5 25.5t-25.5 62.5zM596 1237q0 37 25.5 63.5t62.5 26.5t63.5 -26.5t26.5 -63.5t-26.5 -62.5t-63.5 -25.5t-62.5 25.5t-25.5 62.5z" />
<glyph unicode="&#xa9;" horiz-adv-x="1605" d="M57 733q0 114 29 222t90 204.5t147.5 169t210 114.5t269.5 42q145 0 268 -42t209 -114.5t147 -169t90 -204.5t29 -222q0 -115 -29 -224t-90 -206.5t-147.5 -170.5t-209.5 -116t-267 -43t-267.5 43t-210 116t-148 170.5t-91 206.5t-29.5 224zM166 733q0 -100 25.5 -194.5 t78 -178t126.5 -146t179 -98.5t228 -36t227.5 36t178.5 98.5t126.5 146t77.5 178t25 194.5q0 99 -25 192t-77 175.5t-126 144t-178.5 97.5t-228.5 36q-154 0 -278 -54.5t-201 -146t-117.5 -205.5t-40.5 -239zM410 729q0 77 15 149.5t47 137.5t76.5 113.5t108 77t138.5 28.5 q55 0 110 -21.5t82 -56.5l6 51h97l10 -268l-94 -16q-3 54 -23.5 95.5t-52 64t-65.5 33.5t-70 11q-86 0 -149 -58t-92.5 -145.5t-29.5 -189.5t29.5 -189.5t92.5 -145.5t149 -58q83 0 143.5 54t67.5 155l94 -4l-10 -287h-97l-6 62q-38 -42 -91 -64t-101 -22q-93 0 -168.5 42 t-121.5 112t-70.5 157t-24.5 182z" />
<glyph unicode="&#xaa;" horiz-adv-x="694" d="M82 920q0 76 82 124t235 54v127q0 49 -92 49q-38 0 -58 -11t-20 -24q0 -4 1 -7.5t3 -7t3 -5.5q4 -8 4 -13q0 -25 -19 -39t-45 -14q-29 0 -49.5 19t-20.5 57q0 62 66.5 100.5t153.5 38.5q79 0 134.5 -31t55.5 -90v-348q0 -13 10 -26t23 -13q33 0 57 76l82 -27 q-27 -79 -67.5 -114t-83.5 -35q-35 0 -65.5 20t-45.5 43q-33 -25 -81.5 -44t-88.5 -19q-76 0 -125 41t-49 119zM193 926q0 -34 21 -53t56 -19q31 0 68.5 17t60.5 42v105q-206 0 -206 -92z" />
<glyph unicode="&#xab;" horiz-adv-x="921" d="M14 494l326 366l90 -82l-252 -284l252 -285l-90 -82zM403 494l326 366l90 -82l-252 -284l252 -285l-90 -82z" />
<glyph unicode="&#xac;" horiz-adv-x="1474" d="M211 719v112h1053v-602h-115v490h-938z" />
<glyph unicode="&#xad;" horiz-adv-x="698" d="M109 451v112h485v-112h-485z" />
<glyph unicode="&#xae;" horiz-adv-x="1605" d="M57 733q0 114 29 222t90 204.5t147.5 169t210 114.5t269.5 42q145 0 268 -42t209 -114.5t147 -169t90 -204.5t29 -222q0 -115 -29 -224t-90 -206.5t-147.5 -170.5t-209.5 -116t-267 -43t-267.5 43t-210 116t-148 170.5t-91 206.5t-29.5 224zM166 733q0 -100 25.5 -194.5 t78 -178t126.5 -146t179 -98.5t228 -36t227.5 36t178.5 98.5t126.5 146t77.5 178t25 194.5q0 99 -25 192t-77 175.5t-126 144t-178.5 97.5t-228.5 36q-154 0 -278 -54.5t-201 -146t-117.5 -205.5t-40.5 -239zM451 1112v107h372q132 0 206.5 -75.5t74.5 -178.5 q0 -88 -52 -149.5t-137 -80.5q42 -19 69.5 -51t41.5 -78.5t19 -87t8 -100.5q1 -33 6 -49.5t11 -19.5t17 -3q36 0 70 39l55 -70q-26 -36 -63.5 -56.5t-73.5 -20.5q-70 0 -101.5 47.5t-33.5 152.5q-7 260 -176 260h-94v-342h96v-106h-309v106h100v756h-106zM670 803h139 q83 0 131.5 48t48.5 114t-45.5 106.5t-120.5 40.5h-153v-309z" />
<glyph unicode="&#xaf;" horiz-adv-x="1024" d="M244 1182v112h538v-112h-538z" />
<glyph unicode="&#xb0;" horiz-adv-x="761" d="M80 1139q0 145 89.5 227t211.5 82t212.5 -82t90.5 -227t-90.5 -226.5t-212.5 -81.5q-57 0 -110.5 20t-96 57.5t-68.5 97.5t-26 133zM195 1139q0 -93 54.5 -143t131.5 -50q76 0 132 51t56 142q0 93 -56 144.5t-132 51.5t-131 -51.5t-55 -144.5z" />
<glyph unicode="&#xb1;" horiz-adv-x="1474" d="M281 0v113h913v-113h-913zM281 592v113h399v366h117v-366h397v-113h-397v-359h-117v359h-399z" />
<glyph unicode="&#xb2;" horiz-adv-x="737" d="M76 784q0 51 37 121q25 47 79 108.5t123 119.5q103 86 152 145q55 63 55 139q0 68 -45 113t-112 45q-73 0 -119.5 -44t-46.5 -106q0 -12 4.5 -16t17.5 -4q31 0 49.5 -18.5t18.5 -47.5q0 -30 -21.5 -49.5t-56.5 -19.5q-55 0 -89 39t-34 106q0 112 77.5 189t199.5 77 t199 -74t77 -182q0 -53 -18.5 -103.5t-52 -93t-66 -73.5t-74.5 -65q-140 -113 -190 -205h256q49 0 55 43l16 94h111l-37 -238h-565z" />
<glyph unicode="&#xb3;" horiz-adv-x="737" d="M72 981q0 51 29 85t73 34q35 0 55.5 -20t20.5 -48q0 -25 -16 -44t-48 -23q11 -43 56 -71t112 -28q83 0 130.5 48.5t47.5 115.5q0 63 -47 109.5t-131 46.5h-98v106h92q71 0 110.5 41.5t39.5 98.5q0 60 -40.5 102.5t-115.5 42.5q-95 0 -141 -59q27 -7 41 -25t14 -39 q0 -29 -20.5 -50.5t-53.5 -21.5q-94 0 -94 103q0 81 73.5 138.5t186.5 57.5q125 0 196.5 -71.5t71.5 -169.5q0 -56 -29 -109t-85 -82q74 -33 110.5 -94t36.5 -129q0 -109 -78 -186.5t-225 -77.5q-124 0 -199 65t-75 154z" />
<glyph unicode="&#xb4;" horiz-adv-x="1024" d="M442 1098l238 360h164l-279 -360h-123z" />
<glyph unicode="&#xb5;" horiz-adv-x="1024" d="M49 784v113h246v-616q0 -57 16.5 -98.5t45 -63.5t61 -31.5t71.5 -9.5q95 0 171.5 86t76.5 186v434h-119v113h246v-784h107v-113h-234v100q-33 -58 -106.5 -96.5t-145.5 -38.5q-117 0 -190 51v-548h-127v1316h-119z" />
<glyph unicode="&#xb6;" d="M31 1032q0 101 46 192t130 150q117 84 307 84h518v-112h-147v-1887h-127v1887h-162v-1887h-127v1137q-192 14 -315 132t-123 304zM158 1030q0 -136 87.5 -224t223.5 -93v633q-131 3 -221 -88t-90 -228z" />
<glyph unicode="&#xb7;" horiz-adv-x="512" d="M147 690q0 44 31 77.5t76 33.5q44 0 77.5 -33.5t33.5 -77.5t-33 -76t-78 -32t-76 32t-31 76z" />
<glyph unicode="&#xb8;" horiz-adv-x="1024" d="M287 -446l49 102q31 -18 81.5 -34.5t98.5 -16.5q51 0 78 18t27 49q0 88 -238 99l104 258h129l-73 -181q103 -7 156 -60t53 -112q0 -79 -62.5 -128.5t-183.5 -49.5q-74 0 -121.5 14.5t-97.5 41.5z" />
<glyph unicode="&#xb9;" horiz-adv-x="614" d="M41 1391v122l238 164h86v-790h194v-103h-510v103h197v639z" />
<glyph unicode="&#xba;" horiz-adv-x="684" d="M61 1065q0 143 85 223t200 80q114 0 197.5 -80t83.5 -223q0 -98 -42 -169t-104.5 -103.5t-134.5 -32.5q-116 0 -200.5 80.5t-84.5 224.5zM182 1065q0 -94 44.5 -149.5t117.5 -55.5q68 0 115 54.5t47 150.5q0 95 -45 152t-117 57q-79 0 -120.5 -58.5t-41.5 -150.5z" />
<glyph unicode="&#xbb;" horiz-adv-x="921" d="M96 209l252 285l-252 284l90 82l326 -366l-326 -367zM485 209l252 285l-252 284l90 82l326 -366l-326 -367z" />
<glyph unicode="&#xbc;" horiz-adv-x="1777" d="M102 1204v123l238 164h86v-791h195v-102h-510v102h196v639zM422 -33l805 1528h129l-805 -1528h-129zM1087 236v96l381 565h115v-559h135v-102h-135v-134h135v-102h-391v102h137v134h-377zM1219 338h245v371z" />
<glyph unicode="&#xbd;" horiz-adv-x="1777" d="M102 1204v123l238 164h86v-791h195v-102h-510v102h196v639zM416 -33l805 1528h129l-805 -1528h-129zM1126 0q0 51 37 121q52 99 203 227q100 83 152 146q55 63 55 139q0 67 -45.5 112.5t-112.5 45.5q-73 0 -119.5 -44t-46.5 -106q0 -12 4.5 -16t18.5 -4q30 0 48.5 -18.5 t18.5 -47.5q0 -30 -21 -50t-56 -20q-55 0 -89 39.5t-34 106.5q0 113 77 189.5t199 76.5t199.5 -74t77.5 -182q0 -53 -18.5 -103.5t-52 -93.5t-66 -74.5t-74.5 -64.5q-142 -115 -191 -205h256q50 0 56 43l16 95h111l-37 -238h-566z" />
<glyph unicode="&#xbe;" horiz-adv-x="1777" d="M72 795q0 51 29 84.5t73 33.5q35 0 55.5 -19.5t20.5 -47.5q0 -25 -16 -44.5t-48 -23.5q11 -43 56 -70.5t112 -27.5q83 0 130.5 48.5t47.5 115.5q0 63 -47 109t-131 46h-98v107h92q71 0 110.5 41t39.5 98q0 60 -40.5 103t-115.5 43q-94 0 -141 -60q55 -15 55 -63 q0 -29 -20.5 -50.5t-53.5 -21.5q-94 0 -94 102q0 81 73.5 139t186.5 58q125 0 196.5 -72t71.5 -170q0 -56 -29 -108.5t-85 -81.5q74 -33 110.5 -94t36.5 -129q0 -109 -78 -187t-225 -78q-124 0 -199 65.5t-75 154.5zM420 -33l805 1528h129l-805 -1528h-129zM1081 236v96 l381 565h115v-559h135v-102h-135v-134h135v-102h-391v102h137v134h-377zM1212 338h246v371z" />
<glyph unicode="&#xbf;" horiz-adv-x="811" d="M61 -211q0 120 68 211q30 41 79 85.5t90 80t79.5 78t61 98.5t22.5 123q0 79 -8 180h116q17 -102 17 -182q0 -47 -7 -87t-24.5 -77.5t-32 -63t-47 -60.5t-49.5 -52t-60 -56t-59 -55q-114 -107 -114 -225q0 -100 64.5 -160.5t166.5 -60.5q75 0 131.5 32.5t75.5 84.5 q6 18 6 32q0 21 -11.5 34t-27.5 13q-39 0 -63.5 25.5t-24.5 58.5q0 35 26.5 60.5t69.5 25.5q71 0 109.5 -56.5t38.5 -129.5q0 -127 -98.5 -211t-249.5 -84q-62 0 -121 20.5t-110 59.5t-82.5 106t-31.5 152zM397 874q0 44 33.5 76.5t77.5 32.5q45 0 75.5 -32.5t30.5 -76.5 t-30.5 -77t-75.5 -33q-44 0 -77.5 33t-33.5 77z" />
<glyph unicode="&#xc0;" horiz-adv-x="1499" d="M74 0v113h149l465 1382h105l475 -1382h157v-113h-467v113h172l-143 403h-504l-133 -403h166v-113h-442zM434 1970h164l238 -360h-123zM524 629h428l-217 631z" />
<glyph unicode="&#xc1;" horiz-adv-x="1499" d="M74 0v113h149l465 1382h105l475 -1382h157v-113h-467v113h172l-143 403h-504l-133 -403h166v-113h-442zM524 629h428l-217 631zM666 1610l237 360h164l-279 -360h-122z" />
<glyph unicode="&#xc2;" horiz-adv-x="1499" d="M74 0v113h149l465 1382h105l475 -1382h157v-113h-467v113h172l-143 403h-504l-133 -403h166v-113h-442zM475 1610l217 360h90l215 -360h-135l-125 225l-127 -225h-135zM524 629h428l-217 631z" />
<glyph unicode="&#xc3;" horiz-adv-x="1499" d="M74 0v113h149l465 1382h105l475 -1382h157v-113h-467v113h172l-143 403h-504l-133 -403h166v-113h-442zM399 1628q3 112 61 177t140 65q42 0 85 -20.5t71 -45t59.5 -45t54.5 -20.5q30 0 53.5 32.5t24.5 100.5h119q-4 -118 -56 -182t-143 -64q-43 0 -86.5 20.5t-72 45 t-59 45t-50.5 20.5q-30 0 -54 -30.5t-28 -98.5h-119zM524 629h428l-217 631z" />
<glyph unicode="&#xc4;" horiz-adv-x="1499" d="M74 0v113h149l465 1382h105l475 -1382h157v-113h-467v113h172l-143 403h-504l-133 -403h166v-113h-442zM475 1749q0 37 25.5 63.5t62.5 26.5t63.5 -26.5t26.5 -63.5t-26.5 -62.5t-63.5 -25.5t-62.5 25.5t-25.5 62.5zM524 629h428l-217 631zM819 1749q0 37 25.5 63.5 t62.5 26.5t63.5 -26.5t26.5 -63.5t-26.5 -62.5t-63.5 -25.5t-62.5 25.5t-25.5 62.5z" />
<glyph unicode="&#xc5;" horiz-adv-x="1499" d="M74 0v113h149l465 1382h105l475 -1382h157v-113h-467v113h172l-143 403h-504l-133 -403h166v-113h-442zM524 629h428l-217 631zM530 1749q0 96 61 149.5t144 53.5t144 -53.5t61 -149.5t-61 -149.5t-144 -53.5t-144 53.5t-61 149.5zM633 1749q0 -52 30.5 -81.5t71.5 -29.5 q42 0 72.5 29.5t30.5 81.5t-30.5 81.5t-72.5 29.5q-41 0 -71.5 -29.5t-30.5 -81.5z" />
<glyph unicode="&#xc6;" horiz-adv-x="2170" d="M47 0v115h150l811 1228h-101v115h1039l6 -360l-117 -4l-10 151q-4 71 -20 84.5t-93 13.5h-491v-544h278v172h117v-469h-117v182h-278v-569h548q47 0 68.5 18t26.5 53l32 232l115 -4l-35 -414h-1048v115h166v381h-498l-254 -381h147v-115h-442zM672 608h422v643z" />
<glyph unicode="&#xc7;" horiz-adv-x="1323" d="M113 721q0 218 74 394t211.5 278t312.5 102q211 0 338 -133v96h114l17 -373l-101 -6q-29 148 -124 225.5t-244 77.5q-207 0 -337 -178.5t-130 -476.5q0 -301 129 -475t338 -174q144 0 241.5 79t124.5 238l103 -4l-13 -391h-114l-4 106q-47 -50 -114 -86t-144 -49 l-50 -123q103 -7 156 -60t53 -112q0 -79 -62 -128.5t-183 -49.5q-74 0 -122.5 14.5t-97.5 41.5l50 102q31 -18 81.5 -34.5t98.5 -16.5q104 0 104 67q0 88 -237 99l77 194q-169 14 -293.5 115t-188.5 266.5t-64 374.5z" />
<glyph unicode="&#xc8;" horiz-adv-x="1284" d="M90 0v113h166v1233h-166v112h1018l6 -360l-117 -4l-12 172q-3 57 -14 68.5t-62 11.5h-526v-547h279v172h126v-469h-126v182h-279v-571h549q59 0 72.5 11t21.5 62l33 232l115 -4l-35 -414h-1049zM340 1970h164l237 -360h-123z" />
<glyph unicode="&#xc9;" horiz-adv-x="1284" d="M90 0v113h166v1233h-166v112h1018l6 -360l-117 -4l-12 172q-3 57 -14 68.5t-62 11.5h-526v-547h279v172h126v-469h-126v182h-279v-571h549q59 0 72.5 11t21.5 62l33 232l115 -4l-35 -414h-1049zM571 1610l238 360h164l-279 -360h-123z" />
<glyph unicode="&#xca;" horiz-adv-x="1284" d="M90 0v113h166v1233h-166v112h1018l6 -360l-117 -4l-12 172q-3 57 -14 68.5t-62 11.5h-526v-547h279v172h126v-469h-126v182h-279v-571h549q59 0 72.5 11t21.5 62l33 232l115 -4l-35 -414h-1049zM381 1610l217 360h90l215 -360h-135l-125 225l-127 -225h-135z" />
<glyph unicode="&#xcb;" horiz-adv-x="1284" d="M90 0v113h166v1233h-166v112h1018l6 -360l-117 -4l-12 172q-3 57 -14 68.5t-62 11.5h-526v-547h279v172h126v-469h-126v182h-279v-571h549q59 0 72.5 11t21.5 62l33 232l115 -4l-35 -414h-1049zM381 1749q0 37 25.5 63.5t62.5 26.5t63.5 -26.5t26.5 -63.5t-26.5 -62.5 t-63.5 -25.5t-62.5 25.5t-25.5 62.5zM725 1749q0 37 25.5 63.5t62.5 26.5t63.5 -26.5t26.5 -63.5t-26.5 -62.5t-63.5 -25.5t-62.5 25.5t-25.5 62.5z" />
<glyph unicode="&#xcc;" horiz-adv-x="663" d="M27 1970h163l238 -360h-123zM94 1346v112h475v-112h-176v-1233h168v-113h-461v113h162v1233h-168z" />
<glyph unicode="&#xcd;" horiz-adv-x="663" d="M94 1346v112h475v-112h-176v-1233h168v-113h-461v113h162v1233h-168zM258 1610l238 360h163l-278 -360h-123z" />
<glyph unicode="&#xce;" horiz-adv-x="663" d="M68 1610l217 360h90l215 -360h-135l-125 225l-127 -225h-135zM94 1346v112h475v-112h-176v-1233h168v-113h-461v113h162v1233h-168z" />
<glyph unicode="&#xcf;" horiz-adv-x="663" d="M68 1749q0 37 25.5 63.5t62.5 26.5t63.5 -26.5t26.5 -63.5t-26.5 -62.5t-63.5 -25.5t-62.5 25.5t-25.5 62.5zM94 1346v112h475v-112h-176v-1233h168v-113h-461v113h162v1233h-168zM412 1749q0 37 25.5 63.5t62.5 26.5t63.5 -26.5t26.5 -63.5t-26.5 -62.5t-63.5 -25.5 t-62.5 25.5t-25.5 62.5z" />
<glyph unicode="&#xd0;" horiz-adv-x="1392" d="M104 0v113h156v577h-156v113h156v543h-156v112h553q188 0 330 -89t217.5 -247t75.5 -362q0 -125 -22.5 -235t-72.5 -207.5t-124.5 -167t-185 -110t-248.5 -40.5h-523zM389 113h238q115 0 205.5 36t148 96t95 145t52.5 175.5t15 194.5q0 264 -133 425t-353 161h-268v-543 h318v-113h-318v-577z" />
<glyph unicode="&#xd1;" horiz-adv-x="1540" d="M90 0v113h176v1233h-176v112h316l757 -1204v1092h-157v112h456v-112h-170v-1366h-106l-793 1261v-1128h174v-113h-477zM440 1628q3 112 61 177t140 65q42 0 85 -20.5t71 -45t59.5 -45t54.5 -20.5q30 0 53.5 32.5t24.5 100.5h119q-4 -118 -56 -182t-143 -64 q-43 0 -86.5 20.5t-72 45t-59 45t-50.5 20.5q-30 0 -54 -30.5t-28 -98.5h-119z" />
<glyph unicode="&#xd2;" horiz-adv-x="1458" d="M113 729q0 114 23.5 223t73.5 207.5t121 173t174 118.5t224 44t223.5 -44t174 -119t122 -174t74 -209t23.5 -224t-23.5 -222.5t-73.5 -206.5t-121.5 -172t-174.5 -117.5t-224 -43.5t-224 44t-174 118.5t-121 173t-73.5 207.5t-23.5 223zM246 729q0 -128 32 -244.5 t91 -208.5t152.5 -146t207.5 -54q115 0 208.5 54t152.5 145t90.5 206.5t31.5 243.5t-32 245.5t-91 209.5t-152.5 147t-207.5 55t-207.5 -54t-152.5 -146t-91 -208.5t-32 -244.5zM469 1970h164l237 -360h-122z" />
<glyph unicode="&#xd3;" horiz-adv-x="1458" d="M113 729q0 114 23.5 223t73.5 207.5t121 173t174 118.5t224 44t223.5 -44t174 -119t122 -174t74 -209t23.5 -224t-23.5 -222.5t-73.5 -206.5t-121.5 -172t-174.5 -117.5t-224 -43.5t-224 44t-174 118.5t-121 173t-73.5 207.5t-23.5 223zM246 729q0 -128 32 -244.5 t91 -208.5t152.5 -146t207.5 -54q115 0 208.5 54t152.5 145t90.5 206.5t31.5 243.5t-32 245.5t-91 209.5t-152.5 147t-207.5 55t-207.5 -54t-152.5 -146t-91 -208.5t-32 -244.5zM598 1610l238 360h163l-278 -360h-123z" />
<glyph unicode="&#xd4;" horiz-adv-x="1458" d="M113 729q0 114 23.5 223t73.5 207.5t121 173t174 118.5t224 44t223.5 -44t174 -119t122 -174t74 -209t23.5 -224t-23.5 -222.5t-73.5 -206.5t-121.5 -172t-174.5 -117.5t-224 -43.5t-224 44t-174 118.5t-121 173t-73.5 207.5t-23.5 223zM246 729q0 -128 32 -244.5 t91 -208.5t152.5 -146t207.5 -54q115 0 208.5 54t152.5 145t90.5 206.5t31.5 243.5t-32 245.5t-91 209.5t-152.5 147t-207.5 55t-207.5 -54t-152.5 -146t-91 -208.5t-32 -244.5zM469 1610l217 360h90l215 -360h-135l-125 225l-127 -225h-135z" />
<glyph unicode="&#xd5;" horiz-adv-x="1458" d="M113 729q0 114 23.5 223t73.5 207.5t121 173t174 118.5t224 44t223.5 -44t174 -119t122 -174t74 -209t23.5 -224t-23.5 -222.5t-73.5 -206.5t-121.5 -172t-174.5 -117.5t-224 -43.5t-224 44t-174 118.5t-121 173t-73.5 207.5t-23.5 223zM246 729q0 -128 32 -244.5 t91 -208.5t152.5 -146t207.5 -54q115 0 208.5 54t152.5 145t90.5 206.5t31.5 243.5t-32 245.5t-91 209.5t-152.5 147t-207.5 55t-207.5 -54t-152.5 -146t-91 -208.5t-32 -244.5zM393 1628q3 112 61 177t140 65q42 0 85 -20.5t71 -45t59.5 -45t54.5 -20.5q30 0 53.5 32.5 t24.5 100.5h119q-4 -118 -56 -182t-143 -64q-43 0 -86.5 20.5t-72 45t-59 45t-50.5 20.5q-30 0 -54 -30.5t-28 -98.5h-119z" />
<glyph unicode="&#xd6;" horiz-adv-x="1458" d="M113 729q0 114 23.5 223t73.5 207.5t121 173t174 118.5t224 44t223.5 -44t174 -119t122 -174t74 -209t23.5 -224t-23.5 -222.5t-73.5 -206.5t-121.5 -172t-174.5 -117.5t-224 -43.5t-224 44t-174 118.5t-121 173t-73.5 207.5t-23.5 223zM246 729q0 -128 32 -244.5 t91 -208.5t152.5 -146t207.5 -54q115 0 208.5 54t152.5 145t90.5 206.5t31.5 243.5t-32 245.5t-91 209.5t-152.5 147t-207.5 55t-207.5 -54t-152.5 -146t-91 -208.5t-32 -244.5zM469 1749q0 37 25.5 63.5t62.5 26.5t63.5 -26.5t26.5 -63.5t-26.5 -62.5t-63.5 -25.5 t-62.5 25.5t-25.5 62.5zM813 1749q0 37 25.5 63.5t62.5 26.5t63.5 -26.5t26.5 -63.5t-26.5 -62.5t-63.5 -25.5t-62.5 25.5t-25.5 62.5z" />
<glyph unicode="&#xd7;" horiz-adv-x="1474" d="M311 193l346 342l-342 339l84 82l338 -342l340 344l86 -84l-344 -339l340 -340l-84 -82l-336 340l-342 -344z" />
<glyph unicode="&#xd8;" horiz-adv-x="1458" d="M145 729q0 114 23.5 223t73.5 207.5t121.5 173t174.5 118.5t224 44q230 0 391 -158l123 158l96 -72l-141 -180q72 -105 109.5 -240t37.5 -278q0 -114 -23.5 -222.5t-73.5 -206.5t-121 -172t-174 -117.5t-224 -43.5q-235 0 -395 160l-121 -160l-94 72l139 182 q-71 106 -108.5 239t-37.5 273zM276 729q0 -228 97 -405l704 915q-125 141 -315 141q-115 0 -209 -54t-153.5 -145t-91.5 -207.5t-32 -244.5zM442 221q127 -143 320 -143q93 0 172 35t136 96t97.5 143t60 176.5t19.5 196.5q0 238 -98 412z" />
<glyph unicode="&#xd9;" horiz-adv-x="1443" d="M61 1346v112h480v-112h-179v-957q0 -78 31 -139.5t83 -98t115 -55t132 -18.5t131 18.5t113.5 55t81.5 98t30 139.5v957h-176v112h479v-112h-176v-938q0 -93 -29 -169.5t-76.5 -126.5t-111 -84.5t-130.5 -49.5t-136 -15t-135.5 15t-131 49.5t-113 84.5t-78 126.5 t-29.5 169.5v938h-175zM426 1970h164l237 -360h-122z" />
<glyph unicode="&#xda;" horiz-adv-x="1443" d="M61 1346v112h480v-112h-179v-957q0 -78 31 -139.5t83 -98t115 -55t132 -18.5t131 18.5t113.5 55t81.5 98t30 139.5v957h-176v112h479v-112h-176v-938q0 -93 -29 -169.5t-76.5 -126.5t-111 -84.5t-130.5 -49.5t-136 -15t-135.5 15t-131 49.5t-113 84.5t-78 126.5 t-29.5 169.5v938h-175zM657 1610l238 360h164l-279 -360h-123z" />
<glyph unicode="&#xdb;" horiz-adv-x="1443" d="M61 1346v112h480v-112h-179v-957q0 -78 31 -139.5t83 -98t115 -55t132 -18.5t131 18.5t113.5 55t81.5 98t30 139.5v957h-176v112h479v-112h-176v-938q0 -93 -29 -169.5t-76.5 -126.5t-111 -84.5t-130.5 -49.5t-136 -15t-135.5 15t-131 49.5t-113 84.5t-78 126.5 t-29.5 169.5v938h-175zM467 1610l217 360h90l215 -360h-135l-125 225l-127 -225h-135z" />
<glyph unicode="&#xdc;" horiz-adv-x="1443" d="M61 1346v112h480v-112h-179v-957q0 -78 31 -139.5t83 -98t115 -55t132 -18.5t131 18.5t113.5 55t81.5 98t30 139.5v957h-176v112h479v-112h-176v-938q0 -93 -29 -169.5t-76.5 -126.5t-111 -84.5t-130.5 -49.5t-136 -15t-135.5 15t-131 49.5t-113 84.5t-78 126.5 t-29.5 169.5v938h-175zM467 1749q0 37 25.5 63.5t62.5 26.5t63.5 -26.5t26.5 -63.5t-26.5 -62.5t-63.5 -25.5t-62.5 25.5t-25.5 62.5zM811 1749q0 37 25.5 63.5t62.5 26.5t63.5 -26.5t26.5 -63.5t-26.5 -62.5t-63.5 -25.5t-62.5 25.5t-25.5 62.5z" />
<glyph unicode="&#xdd;" horiz-adv-x="1413" d="M72 1346v112h467v-112h-152l324 -574l321 574h-145v112h454v-112h-163l-406 -709v-524h186v-113h-499v113h186v524l-401 709h-172zM641 1610l238 360h163l-278 -360h-123z" />
<glyph unicode="&#xde;" horiz-adv-x="1198" d="M94 1346v112h475v-112h-182v-175h231q125 0 221 -34.5t152.5 -93t84.5 -129.5t28 -152q0 -204 -126.5 -312t-361.5 -108h-229v-229h174v-113h-461v113h158v1233h-164zM387 453h227q361 0 361 309q0 55 -22 106.5t-64 94.5t-113.5 69.5t-161.5 26.5h-227v-606z" />
<glyph unicode="&#xdf;" horiz-adv-x="1208" d="M43 0v113h154v950q0 101 32 183t87 134t125 79.5t149 27.5q97 0 181 -39.5t140 -124t56 -199.5q0 -91 -45 -173t-121 -111q133 -40 213 -156t80 -248q0 -85 -23.5 -163.5t-70 -144t-125 -105t-177.5 -39.5q-147 0 -228 58t-81 148q0 44 24 73.5t66 29.5q35 0 60.5 -22 t25.5 -58q0 -14 -7 -34t-7 -27q0 -14 12 -21q55 -35 133 -35q67 0 119.5 27t84 73.5t47.5 105t16 126.5q0 141 -93 241.5t-243 100.5h-185v115h185q107 0 161 67t54 172q0 117 -74 182.5t-178 65.5q-112 0 -189 -78.5t-77 -230.5v-1063h-281z" />
<glyph unicode="&#xe0;" horiz-adv-x="1003" d="M111 211q0 135 130 211t390 88v184q0 66 -31 94q-41 33 -125 33q-50 0 -88 -9t-55 -21.5t-17 -24.5q0 -5 11.5 -22.5t11.5 -38.5q0 -41 -28 -65t-64 -24q-38 0 -65 26t-27 75q0 88 92.5 152.5t228.5 64.5q62 0 123.5 -18t101.5 -54q56 -50 56 -155v-551q0 -48 13 -64 t36 -16q24 0 44 30t42 99l106 -35q-56 -207 -190 -207q-102 0 -148 80q-115 -80 -253 -80q-122 0 -208.5 66.5t-86.5 181.5zM184 1458h164l238 -360h-123zM236 211q0 -56 49.5 -95.5t124.5 -39.5q38 0 74 8t61.5 19.5t45.5 24.5t30 23t10 15v231q-111 -3 -191 -19.5 t-123 -43t-62 -57t-19 -66.5z" />
<glyph unicode="&#xe1;" horiz-adv-x="1003" d="M111 211q0 135 130 211t390 88v184q0 66 -31 94q-41 33 -125 33q-50 0 -88 -9t-55 -21.5t-17 -24.5q0 -5 11.5 -22.5t11.5 -38.5q0 -41 -28 -65t-64 -24q-38 0 -65 26t-27 75q0 88 92.5 152.5t228.5 64.5q62 0 123.5 -18t101.5 -54q56 -50 56 -155v-551q0 -48 13 -64 t36 -16q24 0 44 30t42 99l106 -35q-56 -207 -190 -207q-102 0 -148 80q-115 -80 -253 -80q-122 0 -208.5 66.5t-86.5 181.5zM236 211q0 -56 49.5 -95.5t124.5 -39.5q38 0 74 8t61.5 19.5t45.5 24.5t30 23t10 15v231q-111 -3 -191 -19.5t-123 -43t-62 -57t-19 -66.5z M416 1098l237 360h164l-278 -360h-123z" />
<glyph unicode="&#xe2;" horiz-adv-x="1003" d="M111 211q0 135 130 211t390 88v184q0 66 -31 94q-41 33 -125 33q-50 0 -88 -9t-55 -21.5t-17 -24.5q0 -5 11.5 -22.5t11.5 -38.5q0 -41 -28 -65t-64 -24q-38 0 -65 26t-27 75q0 88 92.5 152.5t228.5 64.5q62 0 123.5 -18t101.5 -54q56 -50 56 -155v-551q0 -48 13 -64 t36 -16q24 0 44 30t42 99l106 -35q-56 -207 -190 -207q-102 0 -148 80q-115 -80 -253 -80q-122 0 -208.5 66.5t-86.5 181.5zM225 1098l217 360h90l216 -360h-136l-125 225l-127 -225h-135zM236 211q0 -56 49.5 -95.5t124.5 -39.5q38 0 74 8t61.5 19.5t45.5 24.5t30 23t10 15 v231q-111 -3 -191 -19.5t-123 -43t-62 -57t-19 -66.5z" />
<glyph unicode="&#xe3;" horiz-adv-x="1003" d="M111 211q0 135 130 211t390 88v184q0 66 -31 94q-41 33 -125 33q-50 0 -88 -9t-55 -21.5t-17 -24.5q0 -5 11.5 -22.5t11.5 -38.5q0 -41 -28 -65t-64 -24q-38 0 -65 26t-27 75q0 88 92.5 152.5t228.5 64.5q62 0 123.5 -18t101.5 -54q56 -50 56 -155v-551q0 -48 13 -64 t36 -16q24 0 44 30t42 99l106 -35q-56 -207 -190 -207q-102 0 -148 80q-115 -80 -253 -80q-122 0 -208.5 66.5t-86.5 181.5zM150 1116q3 113 60.5 177.5t139.5 64.5q42 0 85 -20.5t71.5 -45t60 -45t54.5 -20.5q30 0 53 32.5t24 100.5h119q-4 -118 -56 -182t-143 -64 q-43 0 -86.5 20.5t-72 45t-59 45t-50.5 20.5q-30 0 -54 -30.5t-28 -98.5h-118zM236 211q0 -56 49.5 -95.5t124.5 -39.5q38 0 74 8t61.5 19.5t45.5 24.5t30 23t10 15v231q-111 -3 -191 -19.5t-123 -43t-62 -57t-19 -66.5z" />
<glyph unicode="&#xe4;" horiz-adv-x="1003" d="M111 211q0 135 130 211t390 88v184q0 66 -31 94q-41 33 -125 33q-50 0 -88 -9t-55 -21.5t-17 -24.5q0 -5 11.5 -22.5t11.5 -38.5q0 -41 -28 -65t-64 -24q-38 0 -65 26t-27 75q0 88 92.5 152.5t228.5 64.5q62 0 123.5 -18t101.5 -54q56 -50 56 -155v-551q0 -48 13 -64 t36 -16q24 0 44 30t42 99l106 -35q-56 -207 -190 -207q-102 0 -148 80q-115 -80 -253 -80q-122 0 -208.5 66.5t-86.5 181.5zM225 1237q0 37 25.5 63.5t62.5 26.5t63.5 -26.5t26.5 -63.5t-26.5 -62.5t-63.5 -25.5t-62.5 25.5t-25.5 62.5zM236 211q0 -56 49.5 -95.5 t124.5 -39.5q38 0 74 8t61.5 19.5t45.5 24.5t30 23t10 15v231q-111 -3 -191 -19.5t-123 -43t-62 -57t-19 -66.5zM569 1237q0 37 25.5 63.5t62.5 26.5t64 -26.5t27 -63.5q0 -36 -27 -62t-64 -26t-62.5 25.5t-25.5 62.5z" />
<glyph unicode="&#xe5;" horiz-adv-x="1003" d="M111 211q0 135 130 211t390 88v184q0 66 -31 94q-41 33 -125 33q-50 0 -88 -9t-55 -21.5t-17 -24.5q0 -5 11.5 -22.5t11.5 -38.5q0 -41 -28 -65t-64 -24q-38 0 -65 26t-27 75q0 88 92.5 152.5t228.5 64.5q62 0 123.5 -18t101.5 -54q56 -50 56 -155v-551q0 -48 13 -64 t36 -16q24 0 44 30t42 99l106 -35q-56 -207 -190 -207q-102 0 -148 80q-115 -80 -253 -80q-122 0 -208.5 66.5t-86.5 181.5zM236 211q0 -56 49.5 -95.5t124.5 -39.5q38 0 74 8t61.5 19.5t45.5 24.5t30 23t10 15v231q-111 -3 -191 -19.5t-123 -43t-62 -57t-19 -66.5z M281 1237q0 96 60.5 149.5t143.5 53.5t144 -53.5t61 -149.5t-61 -149.5t-144 -53.5t-143.5 53.5t-60.5 149.5zM383 1237q0 -52 30.5 -81.5t71.5 -29.5q42 0 72.5 29.5t30.5 81.5t-30.5 81.5t-72.5 29.5q-41 0 -71.5 -29.5t-30.5 -81.5z" />
<glyph unicode="&#xe6;" horiz-adv-x="1525" d="M111 211q0 137 132 222t388 97v205q0 36 -44 62t-102 26q-55 0 -95.5 -9.5t-57.5 -22.5t-17 -25q0 -5 11.5 -22.5t11.5 -38.5q0 -41 -28 -65t-64 -24q-38 0 -65 26t-27 75q0 88 94.5 152.5t236.5 64.5q50 0 101.5 -13.5t98.5 -47t63 -80.5q118 141 296 141 q117 0 202.5 -63t127 -163t41.5 -223h-663q0 -6 -1 -17t-1 -17q0 -158 86 -267.5t215 -109.5q93 0 163.5 66t108.5 190l115 -23q-39 -154 -142 -249t-245 -95q-210 0 -328 152q-75 -152 -317 -152q-122 0 -208.5 66.5t-86.5 181.5zM236 221q0 -65 49 -106t125 -41 q128 0 174.5 41t46.5 155v148q-89 -2 -159.5 -16t-113.5 -34t-71.5 -46.5t-39.5 -51t-11 -49.5zM774 598h510q-25 110 -91.5 166.5t-148.5 56.5q-85 0 -159 -58.5t-111 -164.5z" />
<glyph unicode="&#xe7;" horiz-adv-x="958" d="M94 436q0 95 29.5 183.5t83.5 159t139.5 113t188.5 42.5q143 0 233 -70t90 -162q0 -56 -28 -85t-68 -29q-36 0 -63.5 22.5t-28.5 59.5q0 28 16 47t16 28q0 11 -15 27.5t-56 32.5t-96 16q-100 0 -172.5 -57t-106 -142.5t-33.5 -185.5q0 -153 78.5 -256.5t218.5 -103.5 q101 0 168.5 73t89.5 183l119 -29q-26 -131 -112 -224.5t-212 -111.5l-47 -119q103 -7 156 -60t53 -112q0 -79 -62.5 -128.5t-183.5 -49.5q-74 0 -121.5 14.5t-97.5 41.5l49 102q31 -18 82 -34.5t99 -16.5q104 0 104 67q0 88 -237 99l79 198q-111 17 -192 86t-120.5 167.5 t-39.5 213.5z" />
<glyph unicode="&#xe8;" horiz-adv-x="991" d="M90 449q0 127 47 235.5t143 179t224 70.5q119 0 204 -60t130 -163q42 -100 45 -238h-666l-2 -22q0 -158 86 -266.5t215 -108.5q94 0 164.5 60.5t107.5 182.5l115 -22q-39 -152 -141 -243t-246 -91q-105 0 -188.5 42t-134 112t-77 155t-26.5 177zM236 586h512 q-19 107 -85.5 171t-160.5 64q-90 0 -165 -61t-101 -174zM264 1458h164l238 -360h-123z" />
<glyph unicode="&#xe9;" horiz-adv-x="991" d="M90 449q0 127 47 235.5t143 179t224 70.5q119 0 204 -60t130 -163q42 -100 45 -238h-666l-2 -22q0 -158 86 -266.5t215 -108.5q94 0 164.5 60.5t107.5 182.5l115 -22q-39 -152 -141 -243t-246 -91q-105 0 -188.5 42t-134 112t-77 155t-26.5 177zM236 586h512 q-19 107 -85.5 171t-160.5 64q-90 0 -165 -61t-101 -174zM352 1098l238 360h164l-279 -360h-123z" />
<glyph unicode="&#xea;" horiz-adv-x="991" d="M90 449q0 127 47 235.5t143 179t224 70.5q119 0 204 -60t130 -163q42 -100 45 -238h-666l-2 -22q0 -158 86 -266.5t215 -108.5q94 0 164.5 60.5t107.5 182.5l115 -22q-39 -152 -141 -243t-246 -91q-105 0 -188.5 42t-134 112t-77 155t-26.5 177zM236 586h512 q-19 107 -85.5 171t-160.5 64q-90 0 -165 -61t-101 -174zM244 1098l217 360h90l215 -360h-135l-125 225l-127 -225h-135z" />
<glyph unicode="&#xeb;" horiz-adv-x="991" d="M90 449q0 127 47 235.5t143 179t224 70.5q119 0 204 -60t130 -163q42 -100 45 -238h-666l-2 -22q0 -158 86 -266.5t215 -108.5q94 0 164.5 60.5t107.5 182.5l115 -22q-39 -152 -141 -243t-246 -91q-105 0 -188.5 42t-134 112t-77 155t-26.5 177zM236 586h512 q-19 107 -85.5 171t-160.5 64q-90 0 -165 -61t-101 -174zM244 1237q0 37 25.5 63.5t62.5 26.5t63.5 -26.5t26.5 -63.5t-26.5 -62.5t-63.5 -25.5t-62.5 25.5t-25.5 62.5zM588 1237q0 37 25.5 63.5t62.5 26.5t63.5 -26.5t26.5 -63.5t-26.5 -62.5t-63.5 -25.5t-62.5 25.5 t-25.5 62.5z" />
<glyph unicode="&#xec;" horiz-adv-x="536" d="M35 1458h164l237 -360h-123zM43 0v113h168v671h-168v113q211 0 293 37v-821h153v-113h-446z" />
<glyph unicode="&#xed;" horiz-adv-x="536" d="M43 0v113h168v671h-168v113q211 0 293 37v-821h153v-113h-446zM123 1098l237 360h164l-278 -360h-123z" />
<glyph unicode="&#xee;" horiz-adv-x="536" d="M14 1098l217 360h91l215 -360h-136l-125 225l-126 -225h-136zM43 0v113h168v671h-168v113q211 0 293 37v-821h153v-113h-446z" />
<glyph unicode="&#xef;" horiz-adv-x="536" d="M14 1237q0 37 25.5 63.5t62.5 26.5t64 -26.5t27 -63.5q0 -36 -27 -62t-64 -26t-62.5 25.5t-25.5 62.5zM43 0v113h168v671h-168v113q211 0 293 37v-821h153v-113h-446zM358 1237q0 37 25.5 63.5t62.5 26.5t64 -26.5t27 -63.5q0 -36 -27 -62t-64 -26t-62.5 25.5t-25.5 62.5 z" />
<glyph unicode="&#xf0;" horiz-adv-x="1079" d="M111 444q0 91 26 176.5t75.5 156.5t132.5 114t187 43q185 0 277 -148l6 5q-6 24 -8 30q-38 126 -102.5 231t-137.5 171l-202 -115l-70 92l168 94q-131 71 -330 86l17 113q264 -19 432 -133l180 102l63 -96l-147 -82q146 -142 214.5 -357t68.5 -456q0 -233 -119.5 -371.5 t-309.5 -138.5q-104 0 -187 42t-132.5 111.5t-75.5 154t-26 175.5zM240 444q0 -157 78 -262.5t214 -105.5q140 0 221 104.5t81 259.5q0 158 -82.5 268.5t-219.5 110.5q-91 0 -158.5 -52.5t-100.5 -136.5t-33 -186z" />
<glyph unicode="&#xf1;" horiz-adv-x="1060" d="M45 784v113q101 0 148.5 6.5t117.5 30.5v-148q44 66 121.5 107t165.5 41q50 0 97.5 -15t91.5 -46.5t71 -90t27 -135.5v-534h123v-113h-373v113h123v512q0 110 -47 153t-127 43q-118 0 -195.5 -80.5t-77.5 -183.5v-444h127v-113h-385v113h131v671h-139zM203 1116 q3 113 60.5 177.5t139.5 64.5q42 0 85 -20.5t71.5 -45t60 -45t54.5 -20.5q30 0 53.5 32.5t24.5 100.5h118q-4 -118 -55.5 -182t-142.5 -64q-43 0 -86.5 20.5t-72 45t-59.5 45t-51 20.5q-30 0 -53.5 -30.5t-27.5 -98.5h-119z" />
<glyph unicode="&#xf2;" horiz-adv-x="1032" d="M90 449q0 93 27 178.5t78 154.5t133 110.5t184 41.5q103 0 186.5 -41.5t136 -111t80 -156t27.5 -179.5t-27.5 -178t-79.5 -154t-135.5 -110t-187.5 -41q-102 0 -184 41.5t-133 110.5t-78 155t-27 179zM219 449q0 -97 31.5 -180t100 -138t161.5 -55q96 0 166 54.5 t102.5 137t32.5 178.5q0 72 -19 138t-55.5 119.5t-95 85.5t-131.5 32q-93 0 -161.5 -55t-100 -138t-31.5 -179zM252 1458h164l237 -360h-123z" />
<glyph unicode="&#xf3;" horiz-adv-x="1032" d="M90 449q0 93 27 178.5t78 154.5t133 110.5t184 41.5q103 0 186.5 -41.5t136 -111t80 -156t27.5 -179.5t-27.5 -178t-79.5 -154t-135.5 -110t-187.5 -41q-102 0 -184 41.5t-133 110.5t-78 155t-27 179zM219 449q0 -97 31.5 -180t100 -138t161.5 -55q96 0 166 54.5 t102.5 137t32.5 178.5q0 72 -19 138t-55.5 119.5t-95 85.5t-131.5 32q-93 0 -161.5 -55t-100 -138t-31.5 -179zM381 1098l237 360h164l-278 -360h-123z" />
<glyph unicode="&#xf4;" horiz-adv-x="1032" d="M90 449q0 93 27 178.5t78 154.5t133 110.5t184 41.5q103 0 186.5 -41.5t136 -111t80 -156t27.5 -179.5t-27.5 -178t-79.5 -154t-135.5 -110t-187.5 -41q-102 0 -184 41.5t-133 110.5t-78 155t-27 179zM219 449q0 -97 31.5 -180t100 -138t161.5 -55q96 0 166 54.5 t102.5 137t32.5 178.5q0 72 -19 138t-55.5 119.5t-95 85.5t-131.5 32q-93 0 -161.5 -55t-100 -138t-31.5 -179zM252 1098l217 360h90l215 -360h-135l-125 225l-127 -225h-135z" />
<glyph unicode="&#xf5;" horiz-adv-x="1032" d="M90 449q0 93 27 178.5t78 154.5t133 110.5t184 41.5q103 0 186.5 -41.5t136 -111t80 -156t27.5 -179.5t-27.5 -178t-79.5 -154t-135.5 -110t-187.5 -41q-102 0 -184 41.5t-133 110.5t-78 155t-27 179zM176 1116q3 112 61 177t140 65q42 0 85 -20.5t71 -45t59.5 -45 t54.5 -20.5q30 0 53.5 32.5t24.5 100.5h119q-4 -118 -56 -182t-143 -64q-43 0 -86.5 20.5t-72 45t-59 45t-50.5 20.5q-30 0 -54 -30.5t-28 -98.5h-119zM219 449q0 -97 31.5 -180t100 -138t161.5 -55q96 0 166 54.5t102.5 137t32.5 178.5q0 72 -19 138t-55.5 119.5t-95 85.5 t-131.5 32q-93 0 -161.5 -55t-100 -138t-31.5 -179z" />
<glyph unicode="&#xf6;" horiz-adv-x="1032" d="M90 449q0 93 27 178.5t78 154.5t133 110.5t184 41.5q103 0 186.5 -41.5t136 -111t80 -156t27.5 -179.5t-27.5 -178t-79.5 -154t-135.5 -110t-187.5 -41q-102 0 -184 41.5t-133 110.5t-78 155t-27 179zM219 449q0 -97 31.5 -180t100 -138t161.5 -55q96 0 166 54.5 t102.5 137t32.5 178.5q0 72 -19 138t-55.5 119.5t-95 85.5t-131.5 32q-93 0 -161.5 -55t-100 -138t-31.5 -179zM252 1237q0 37 25.5 63.5t62.5 26.5t63.5 -26.5t26.5 -63.5t-26.5 -62.5t-63.5 -25.5t-62.5 25.5t-25.5 62.5zM596 1237q0 37 25.5 63.5t62.5 26.5t63.5 -26.5 t26.5 -63.5t-26.5 -62.5t-63.5 -25.5t-62.5 25.5t-25.5 62.5z" />
<glyph unicode="&#xf7;" horiz-adv-x="1474" d="M199 479v113h1077v-113h-1077zM641 152q0 36 27 62t63 26q37 0 63.5 -25.5t26.5 -62.5t-26.5 -63t-63.5 -26t-63.5 25.5t-26.5 63.5zM641 928q0 35 24 61.5t66 26.5q41 0 65.5 -26.5t24.5 -61.5t-24.5 -61.5t-65.5 -26.5t-65.5 26t-24.5 62z" />
<glyph unicode="&#xf8;" horiz-adv-x="1032" d="M90 438q0 88 26.5 171t76.5 152t133 110.5t186 41.5q139 0 242 -73l71 90l97 -70l-82 -104q102 -131 102 -320q0 -88 -27 -171t-78 -151t-135.5 -109.5t-189.5 -41.5q-141 0 -240 74l-71 -90l-95 71l82 103q-98 131 -98 317zM219 438q0 -121 51 -215l412 522 q-75 58 -170 58q-136 0 -214.5 -107t-78.5 -258zM346 131q70 -57 166 -57q95 0 164.5 52t103 133t33.5 177q0 122 -53 217z" />
<glyph unicode="&#xf9;" horiz-adv-x="1024" d="M29 784v113h266v-625q0 -101 45.5 -149.5t128.5 -48.5q109 0 188.5 76t79.5 190v444h-139v113h266v-784h127v-113q-168 0 -254 -6v110q-43 -64 -120.5 -102.5t-151.5 -38.5q-134 0 -215.5 73t-81.5 214v534h-139zM174 1458h164l237 -360h-122z" />
<glyph unicode="&#xfa;" horiz-adv-x="1024" d="M29 784v113h266v-625q0 -101 45.5 -149.5t128.5 -48.5q109 0 188.5 76t79.5 190v444h-139v113h266v-784h127v-113q-168 0 -254 -6v110q-43 -64 -120.5 -102.5t-151.5 -38.5q-134 0 -215.5 73t-81.5 214v534h-139zM406 1098l237 360h164l-279 -360h-122z" />
<glyph unicode="&#xfb;" horiz-adv-x="1024" d="M29 784v113h266v-625q0 -101 45.5 -149.5t128.5 -48.5q109 0 188.5 76t79.5 190v444h-139v113h266v-784h127v-113q-168 0 -254 -6v110q-43 -64 -120.5 -102.5t-151.5 -38.5q-134 0 -215.5 73t-81.5 214v534h-139zM215 1098l217 360h90l215 -360h-135l-125 225l-127 -225 h-135z" />
<glyph unicode="&#xfc;" horiz-adv-x="1024" d="M29 784v113h266v-625q0 -101 45.5 -149.5t128.5 -48.5q109 0 188.5 76t79.5 190v444h-139v113h266v-784h127v-113q-168 0 -254 -6v110q-43 -64 -120.5 -102.5t-151.5 -38.5q-134 0 -215.5 73t-81.5 214v534h-139zM215 1237q0 37 25.5 63.5t62.5 26.5t63.5 -26.5 t26.5 -63.5t-26.5 -62.5t-63.5 -25.5t-62.5 25.5t-25.5 62.5zM559 1237q0 37 25.5 63.5t62.5 26.5t63.5 -26.5t26.5 -63.5t-26.5 -62.5t-63.5 -25.5t-62.5 25.5t-25.5 62.5z" />
<glyph unicode="&#xfd;" horiz-adv-x="1005" d="M47 784v113h356v-113h-108l223 -585l209 585h-106v113h354v-113h-119l-367 -997q-67 -183 -112 -246q-61 -86 -152 -86q-55 0 -93 33t-38 76q0 36 22.5 60t57.5 24q27 0 43 -13t24 -25.5t13 -12.5q36 0 74 100q11 28 34 85.5t32 81t25 68t32 93.5l-291 759h-113z M453 1098l237 360h164l-279 -360h-122z" />
<glyph unicode="&#xfe;" horiz-adv-x="1058" d="M25 1346v112q171 0 290 37v-704q34 63 111.5 103t157.5 40q75 0 138.5 -27.5t108 -74t76.5 -109t47 -133t15 -144.5q0 -93 -24.5 -178t-71.5 -154t-123.5 -110t-171.5 -41q-86 0 -156.5 36.5t-106.5 96.5v-514h138v-114h-406v114h141v1764h-163zM315 442q0 -162 70 -263 t193 -101q84 0 145.5 55.5t90 137.5t28.5 178t-28.5 178.5t-89.5 137t-144 54.5q-118 0 -191.5 -101t-73.5 -276z" />
<glyph unicode="&#xff;" horiz-adv-x="1005" d="M47 784v113h356v-113h-108l223 -585l209 585h-106v113h354v-113h-119l-367 -997q-67 -183 -112 -246q-61 -86 -152 -86q-55 0 -93 33t-38 76q0 36 22.5 60t57.5 24q27 0 43 -13t24 -25.5t13 -12.5q36 0 74 100q11 28 34 85.5t32 81t25 68t32 93.5l-291 759h-113z M262 1237q0 37 25.5 63.5t62.5 26.5t63.5 -26.5t26.5 -63.5t-26.5 -62.5t-63.5 -25.5t-62.5 25.5t-25.5 62.5zM606 1237q0 37 25.5 63.5t62.5 26.5t63.5 -26.5t26.5 -63.5t-26.5 -62.5t-63.5 -25.5t-62.5 25.5t-25.5 62.5z" />
<glyph unicode="&#x152;" horiz-adv-x="1978" d="M113 729q0 109 26 213t80.5 198t132 164.5t188.5 112t242 41.5h1020l6 -360l-116 -4l-13 172q-3 57 -13.5 68.5t-61.5 11.5h-527v-547h279v172h127v-469h-127v182h-279v-571h549q59 0 72.5 11t21.5 62l33 232l115 -4l-35 -414h-1049q-131 0 -242.5 41.5t-189 112 t-132.5 164t-81 198t-26 213.5zM246 729q0 -119 34.5 -228t100 -196t169.5 -138.5t232 -51.5h168v1228h-166q-128 0 -232.5 -51.5t-170 -138t-100.5 -195.5t-35 -229z" />
<glyph unicode="&#x153;" horiz-adv-x="1732" d="M111 449q0 93 27 178.5t77.5 154.5t132.5 110.5t184 41.5q126 0 219.5 -60.5t147.5 -162.5q55 102 145 162.5t207 60.5t202.5 -63t127 -163t41.5 -223h-664q0 -6 -1 -17t-1 -17q0 -158 86 -267.5t215 -109.5q93 0 164 66t109 190l115 -23q-39 -154 -142.5 -249 t-245.5 -95q-128 0 -220 56.5t-144 152.5q-56 -96 -147 -152.5t-214 -56.5q-102 0 -184 41.5t-132.5 110.5t-77.5 155t-27 179zM240 449q0 -72 18.5 -138t54 -119.5t92 -85.5t127.5 -32q96 0 166.5 55t103 138t32.5 179q0 97 -32.5 181t-103 140t-166.5 56q-93 0 -161 -55.5 t-99.5 -138.5t-31.5 -180zM981 598h510q-25 110 -91.5 166.5t-148.5 56.5q-85 0 -159 -58.5t-111 -164.5z" />
<glyph unicode="&#x178;" horiz-adv-x="1413" d="M72 1346v112h467v-112h-152l324 -574l321 574h-145v112h454v-112h-163l-406 -709v-524h186v-113h-499v113h186v524l-401 709h-172zM451 1790q0 37 25.5 63.5t62.5 26.5t63.5 -26.5t26.5 -63.5t-26.5 -62.5t-63.5 -25.5t-62.5 25.5t-25.5 62.5zM795 1790q0 37 25.5 63.5 t62.5 26.5t63.5 -26.5t26.5 -63.5t-26.5 -62.5t-63.5 -25.5t-62.5 25.5t-25.5 62.5z" />
<glyph unicode="&#x2c6;" horiz-adv-x="1024" d="M252 1098l217 360h90l215 -360h-135l-125 225l-127 -225h-135z" />
<glyph unicode="&#x2dc;" horiz-adv-x="1024" d="M176 1116q3 112 61 177t140 65q42 0 85 -20.5t71 -45t59.5 -45t54.5 -20.5q30 0 53.5 32.5t24.5 100.5h119q-4 -118 -56 -182t-143 -64q-43 0 -86.5 20.5t-72 45t-59 45t-50.5 20.5q-30 0 -54 -30.5t-28 -98.5h-119z" />
<glyph unicode="&#x2000;" horiz-adv-x="985" />
<glyph unicode="&#x2001;" horiz-adv-x="1970" />
<glyph unicode="&#x2002;" horiz-adv-x="985" />
<glyph unicode="&#x2003;" horiz-adv-x="1970" />
<glyph unicode="&#x2004;" horiz-adv-x="656" />
<glyph unicode="&#x2005;" horiz-adv-x="492" />
<glyph unicode="&#x2006;" horiz-adv-x="328" />
<glyph unicode="&#x2007;" horiz-adv-x="328" />
<glyph unicode="&#x2008;" horiz-adv-x="246" />
<glyph unicode="&#x2009;" horiz-adv-x="394" />
<glyph unicode="&#x200a;" horiz-adv-x="109" />
<glyph unicode="&#x2010;" horiz-adv-x="698" d="M109 451v112h485v-112h-485z" />
<glyph unicode="&#x2011;" horiz-adv-x="698" d="M109 451v112h485v-112h-485z" />
<glyph unicode="&#x2012;" horiz-adv-x="698" d="M109 451v112h485v-112h-485z" />
<glyph unicode="&#x2013;" horiz-adv-x="1474" d="M225 479v113h1024v-113h-1024z" />
<glyph unicode="&#x2014;" horiz-adv-x="2048" d="M51 479v113h1946v-113h-1946z" />
<glyph unicode="&#x2018;" horiz-adv-x="512" d="M96 1137q0 104 55.5 201t165.5 157l62 -88q-84 -44 -126 -117.5t-42 -146.5q0 -40 12 -70q10 -24 31 -24q10 0 37 12t49 12q35 0 56.5 -21.5t21.5 -52.5q0 -38 -32 -67t-89 -29q-91 0 -146 65t-55 169z" />
<glyph unicode="&#x2019;" horiz-adv-x="512" d="M94 1386q0 38 33 67.5t94 29.5q87 0 141 -65.5t54 -168.5q0 -104 -55.5 -201t-165.5 -157l-62 88q84 44 126 117.5t42 146.5q0 40 -12 70q-10 24 -31 24q-10 0 -37 -12t-51 -12q-34 0 -55 21.5t-21 51.5z" />
<glyph unicode="&#x201a;" horiz-adv-x="512" d="M94 39q0 38 33 67t94 29q87 0 141 -65t54 -168q0 -104 -55.5 -201.5t-165.5 -157.5l-62 88q84 44 126 118t42 147q0 39 -12 69q-11 25 -31 25q-10 0 -37 -12.5t-51 -12.5q-34 0 -55 22t-21 52z" />
<glyph unicode="&#x201c;" horiz-adv-x="921" d="M96 1137q0 104 55.5 201t165.5 157l62 -88q-84 -44 -126 -117.5t-42 -146.5q0 -40 12 -70q10 -24 31 -24q10 0 37 12t49 12q35 0 56.5 -21.5t21.5 -52.5q0 -38 -32 -67t-89 -29q-91 0 -146 65t-55 169zM485 1137q0 104 56 201t166 157l61 -88q-84 -44 -126 -117.5 t-42 -146.5q0 -40 12 -70q10 -24 31 -24q10 0 37 12t51 12q34 0 55 -22t21 -52q0 -38 -32 -67t-89 -29q-91 0 -146 65t-55 169z" />
<glyph unicode="&#x201d;" horiz-adv-x="921" d="M98 1386q0 38 31.5 67.5t87.5 29.5q93 0 148 -65t55 -169t-55.5 -201t-165.5 -157l-62 88q84 44 126 117.5t42 146.5q0 40 -12 70q-10 24 -31 24q-10 0 -37 -12t-51 -12q-34 0 -55 21.5t-21 51.5zM487 1386q0 38 32 67.5t89 29.5q91 0 146 -65t55 -169t-55.5 -201 t-165.5 -157l-62 88q84 44 126 117.5t42 146.5q0 40 -12 70q-10 24 -31 24q-11 0 -37 -12t-49 -12q-35 0 -56.5 21.5t-21.5 51.5z" />
<glyph unicode="&#x201e;" horiz-adv-x="921" d="M100 37q0 37 31.5 66.5t87.5 29.5q93 0 148 -64.5t55 -168.5t-55.5 -201.5t-165.5 -157.5l-62 88q84 44 126 118t42 147q0 39 -12 69q-11 25 -31 25q-10 0 -37 -12.5t-51 -12.5q-34 0 -55 22t-21 52zM489 37q0 38 32 67t89 29q91 0 146 -64.5t55 -168.5t-55.5 -201.5 t-165.5 -157.5l-62 88q84 44 126 118t42 147q0 39 -12 69q-11 25 -31 25q-11 0 -37 -12.5t-49 -12.5q-35 0 -56.5 21.5t-21.5 52.5z" />
<glyph unicode="&#x2022;" d="M391 512q0 70 48.5 122t121.5 52q72 0 123 -51t51 -123t-51 -123t-123 -51q-73 0 -121.5 52t-48.5 122z" />
<glyph unicode="&#x2026;" horiz-adv-x="2048" d="M231 72q0 44 31 77t76 33q44 0 77.5 -33t33.5 -77t-33.5 -76.5t-77.5 -32.5q-45 0 -76 32.5t-31 76.5zM913 72q0 44 31 77t76 33q44 0 77 -33t33 -77t-33 -76.5t-77 -32.5q-45 0 -76 32.5t-31 76.5zM1599 72q0 44 31 77t76 33q44 0 77.5 -33t33.5 -77t-33.5 -76.5 t-77.5 -32.5q-45 0 -76 32.5t-31 76.5z" />
<glyph unicode="&#x202f;" horiz-adv-x="394" />
<glyph unicode="&#x2039;" horiz-adv-x="512" d="M10 494l326 366l90 -82l-252 -284l252 -285l-90 -82z" />
<glyph unicode="&#x203a;" horiz-adv-x="512" d="M78 209l252 285l-252 284l90 82l326 -366l-326 -367z" />
<glyph unicode="&#x205f;" horiz-adv-x="492" />
<glyph unicode="&#x20ac;" d="M25 526l26 109h137q-2 29 -2 88v65h-161l26 109h144q14 121 46.5 223t86 186.5t137.5 132.5t190 48q89 0 161 -38.5t114 -96.5l31 114l112 -28l-102 -383l-113 30l37 136q-43 72 -105.5 111.5t-134.5 39.5t-130 -36.5t-97.5 -102t-64.5 -149.5t-37 -187h602l-31 -109 h-578q-2 -23 -2 -65q0 -59 2 -88h537l-31 -109h-495q27 -212 113 -327t212 -115q95 0 162.5 55.5t122.5 167.5l111 -47q-51 -133 -154 -212t-242 -79q-104 0 -186.5 44.5t-136 123.5t-86 176t-47.5 213h-174z" />
<glyph unicode="&#x2122;" horiz-adv-x="1466" d="M29 1243l4 215h532l4 -215l-82 -2l-10 105q-2 18 -5.5 23t-18.5 5h-109v-487h88v-84h-264v84h82v487h-105q-17 0 -21 -4t-5 -24l-6 -105zM647 803v84h84v485h-84v86h234l166 -481l163 481h222v-86h-82v-485h88v-84h-242v84h64v446l-183 -530h-73l-183 528v-444h68v-84 h-242z" />
<glyph unicode="&#x25fc;" horiz-adv-x="901" d="M0 0v901h901v-901h-901z" />
</font>
</defs>
</svg>
